<mxfile host="app.diagrams.net" modified="2024-04-16T02:22:58.497Z" agent="Mozilla/5.0 (Windows NT 10.0; Win64; x64) AppleWebKit/537.36 (KHTML, like Gecko) Chrome/123.0.0.0 Safari/537.36" etag="ZtjOmU9t7-saEYDc6UXF" version="24.2.5" type="github" pages="11">
  <diagram id="C5RBs43oDa-KdzZeNtuy" name="Page-1">
    <mxGraphModel dx="1261" dy="636" grid="1" gridSize="10" guides="1" tooltips="1" connect="1" arrows="1" fold="1" page="1" pageScale="1" pageWidth="827" pageHeight="1169" math="0" shadow="0">
      <root>
        <mxCell id="WIyWlLk6GJQsqaUBKTNV-0" />
        <mxCell id="WIyWlLk6GJQsqaUBKTNV-1" parent="WIyWlLk6GJQsqaUBKTNV-0" />
        <mxCell id="RVxuQs3pCjiMWKY4kIl3-12" style="edgeStyle=orthogonalEdgeStyle;rounded=0;orthogonalLoop=1;jettySize=auto;html=1;exitX=0.5;exitY=1;exitDx=0;exitDy=0;entryX=0.5;entryY=0;entryDx=0;entryDy=0;" edge="1" parent="WIyWlLk6GJQsqaUBKTNV-1" source="RVxuQs3pCjiMWKY4kIl3-0" target="RVxuQs3pCjiMWKY4kIl3-3">
          <mxGeometry relative="1" as="geometry" />
        </mxCell>
        <mxCell id="RVxuQs3pCjiMWKY4kIl3-0" value="START" style="rounded=1;whiteSpace=wrap;html=1;arcSize=46;" vertex="1" parent="WIyWlLk6GJQsqaUBKTNV-1">
          <mxGeometry x="110" y="40" width="120" height="60" as="geometry" />
        </mxCell>
        <mxCell id="RVxuQs3pCjiMWKY4kIl3-1" value="END" style="rounded=1;whiteSpace=wrap;html=1;arcSize=46;" vertex="1" parent="WIyWlLk6GJQsqaUBKTNV-1">
          <mxGeometry x="110" y="690" width="120" height="60" as="geometry" />
        </mxCell>
        <mxCell id="RVxuQs3pCjiMWKY4kIl3-16" style="edgeStyle=orthogonalEdgeStyle;rounded=0;orthogonalLoop=1;jettySize=auto;html=1;exitX=0.5;exitY=1;exitDx=0;exitDy=0;entryX=0.5;entryY=0;entryDx=0;entryDy=0;" edge="1" parent="WIyWlLk6GJQsqaUBKTNV-1" source="RVxuQs3pCjiMWKY4kIl3-2" target="RVxuQs3pCjiMWKY4kIl3-5">
          <mxGeometry relative="1" as="geometry" />
        </mxCell>
        <mxCell id="RVxuQs3pCjiMWKY4kIl3-2" value="add=0" style="rounded=0;whiteSpace=wrap;html=1;" vertex="1" parent="WIyWlLk6GJQsqaUBKTNV-1">
          <mxGeometry x="110" y="360" width="120" height="40" as="geometry" />
        </mxCell>
        <mxCell id="RVxuQs3pCjiMWKY4kIl3-13" style="edgeStyle=orthogonalEdgeStyle;rounded=0;orthogonalLoop=1;jettySize=auto;html=1;exitX=0.5;exitY=1;exitDx=0;exitDy=0;entryX=0.5;entryY=0;entryDx=0;entryDy=0;" edge="1" parent="WIyWlLk6GJQsqaUBKTNV-1" source="RVxuQs3pCjiMWKY4kIl3-3" target="RVxuQs3pCjiMWKY4kIl3-7">
          <mxGeometry relative="1" as="geometry" />
        </mxCell>
        <mxCell id="RVxuQs3pCjiMWKY4kIl3-3" value="input int M&lt;div&gt;input string x&lt;/div&gt;" style="shape=parallelogram;perimeter=parallelogramPerimeter;whiteSpace=wrap;html=1;fixedSize=1;" vertex="1" parent="WIyWlLk6GJQsqaUBKTNV-1">
          <mxGeometry x="110" y="140" width="120" height="60" as="geometry" />
        </mxCell>
        <mxCell id="RVxuQs3pCjiMWKY4kIl3-15" style="edgeStyle=orthogonalEdgeStyle;rounded=0;orthogonalLoop=1;jettySize=auto;html=1;exitX=0.5;exitY=1;exitDx=0;exitDy=0;entryX=0.5;entryY=0;entryDx=0;entryDy=0;" edge="1" parent="WIyWlLk6GJQsqaUBKTNV-1" source="RVxuQs3pCjiMWKY4kIl3-4" target="RVxuQs3pCjiMWKY4kIl3-2">
          <mxGeometry relative="1" as="geometry" />
        </mxCell>
        <mxCell id="RVxuQs3pCjiMWKY4kIl3-4" value="I" style="ellipse;whiteSpace=wrap;html=1;aspect=fixed;" vertex="1" parent="WIyWlLk6GJQsqaUBKTNV-1">
          <mxGeometry x="155" y="300" width="30" height="30" as="geometry" />
        </mxCell>
        <mxCell id="RVxuQs3pCjiMWKY4kIl3-17" style="edgeStyle=orthogonalEdgeStyle;rounded=0;orthogonalLoop=1;jettySize=auto;html=1;exitX=0.5;exitY=1;exitDx=0;exitDy=0;entryX=0.5;entryY=0;entryDx=0;entryDy=0;" edge="1" parent="WIyWlLk6GJQsqaUBKTNV-1" source="RVxuQs3pCjiMWKY4kIl3-5" target="RVxuQs3pCjiMWKY4kIl3-11">
          <mxGeometry relative="1" as="geometry" />
        </mxCell>
        <mxCell id="3jt-VPrEsy2Ki4oMQ2Es-1" value="NO" style="edgeLabel;html=1;align=center;verticalAlign=middle;resizable=0;points=[];" vertex="1" connectable="0" parent="RVxuQs3pCjiMWKY4kIl3-17">
          <mxGeometry x="-0.1721" y="1" relative="1" as="geometry">
            <mxPoint as="offset" />
          </mxGeometry>
        </mxCell>
        <mxCell id="RVxuQs3pCjiMWKY4kIl3-19" style="edgeStyle=orthogonalEdgeStyle;rounded=0;orthogonalLoop=1;jettySize=auto;html=1;exitX=1;exitY=0.5;exitDx=0;exitDy=0;entryX=0;entryY=0.5;entryDx=0;entryDy=0;" edge="1" parent="WIyWlLk6GJQsqaUBKTNV-1" source="RVxuQs3pCjiMWKY4kIl3-5" target="RVxuQs3pCjiMWKY4kIl3-6">
          <mxGeometry relative="1" as="geometry" />
        </mxCell>
        <mxCell id="3jt-VPrEsy2Ki4oMQ2Es-0" value="YES" style="edgeLabel;html=1;align=center;verticalAlign=middle;resizable=0;points=[];" vertex="1" connectable="0" parent="RVxuQs3pCjiMWKY4kIl3-19">
          <mxGeometry x="-0.453" relative="1" as="geometry">
            <mxPoint as="offset" />
          </mxGeometry>
        </mxCell>
        <mxCell id="RVxuQs3pCjiMWKY4kIl3-5" value="for&amp;nbsp;&lt;div&gt;i in range(0,M)&lt;/div&gt;" style="rhombus;whiteSpace=wrap;html=1;" vertex="1" parent="WIyWlLk6GJQsqaUBKTNV-1">
          <mxGeometry x="120" y="460" width="100" height="100" as="geometry" />
        </mxCell>
        <mxCell id="h3HzM7HPMlunvhvAfXAc-0" style="edgeStyle=orthogonalEdgeStyle;rounded=0;orthogonalLoop=1;jettySize=auto;html=1;exitX=0.5;exitY=0;exitDx=0;exitDy=0;" edge="1" parent="WIyWlLk6GJQsqaUBKTNV-1" source="RVxuQs3pCjiMWKY4kIl3-6">
          <mxGeometry relative="1" as="geometry">
            <mxPoint x="170" y="440" as="targetPoint" />
            <Array as="points">
              <mxPoint x="354" y="440" />
              <mxPoint x="201" y="440" />
            </Array>
          </mxGeometry>
        </mxCell>
        <mxCell id="RVxuQs3pCjiMWKY4kIl3-6" value="add=add+li[i]" style="rounded=0;whiteSpace=wrap;html=1;" vertex="1" parent="WIyWlLk6GJQsqaUBKTNV-1">
          <mxGeometry x="294" y="490" width="120" height="40" as="geometry" />
        </mxCell>
        <mxCell id="RVxuQs3pCjiMWKY4kIl3-14" style="edgeStyle=orthogonalEdgeStyle;rounded=0;orthogonalLoop=1;jettySize=auto;html=1;exitX=0.5;exitY=1;exitDx=0;exitDy=0;entryX=0.5;entryY=0;entryDx=0;entryDy=0;" edge="1" parent="WIyWlLk6GJQsqaUBKTNV-1" source="RVxuQs3pCjiMWKY4kIl3-7" target="RVxuQs3pCjiMWKY4kIl3-4">
          <mxGeometry relative="1" as="geometry" />
        </mxCell>
        <mxCell id="RVxuQs3pCjiMWKY4kIl3-7" value="initialise empty list li" style="rounded=0;whiteSpace=wrap;html=1;" vertex="1" parent="WIyWlLk6GJQsqaUBKTNV-1">
          <mxGeometry x="110" y="230" width="120" height="40" as="geometry" />
        </mxCell>
        <mxCell id="RVxuQs3pCjiMWKY4kIl3-18" style="edgeStyle=orthogonalEdgeStyle;rounded=0;orthogonalLoop=1;jettySize=auto;html=1;exitX=0.5;exitY=1;exitDx=0;exitDy=0;entryX=0.5;entryY=0;entryDx=0;entryDy=0;" edge="1" parent="WIyWlLk6GJQsqaUBKTNV-1" source="RVxuQs3pCjiMWKY4kIl3-11" target="RVxuQs3pCjiMWKY4kIl3-1">
          <mxGeometry relative="1" as="geometry" />
        </mxCell>
        <mxCell id="RVxuQs3pCjiMWKY4kIl3-11" value="print add" style="shape=parallelogram;perimeter=parallelogramPerimeter;whiteSpace=wrap;html=1;fixedSize=1;" vertex="1" parent="WIyWlLk6GJQsqaUBKTNV-1">
          <mxGeometry x="110" y="600" width="120" height="40" as="geometry" />
        </mxCell>
      </root>
    </mxGraphModel>
  </diagram>
  <diagram id="5mylmV2NmOQcOpB57m7O" name="Page-2">
    <mxGraphModel dx="1261" dy="636" grid="1" gridSize="10" guides="1" tooltips="1" connect="1" arrows="1" fold="1" page="1" pageScale="1" pageWidth="827" pageHeight="1169" math="0" shadow="0">
      <root>
        <mxCell id="0" />
        <mxCell id="1" parent="0" />
        <mxCell id="VU4PFcj9vpuYolGSLBWL-5" style="edgeStyle=orthogonalEdgeStyle;rounded=0;orthogonalLoop=1;jettySize=auto;html=1;exitX=0.5;exitY=1;exitDx=0;exitDy=0;entryX=0.5;entryY=0;entryDx=0;entryDy=0;" edge="1" parent="1" source="KNu51w0LrFlphX5pxO4v-1" target="KNu51w0LrFlphX5pxO4v-2">
          <mxGeometry relative="1" as="geometry" />
        </mxCell>
        <mxCell id="KNu51w0LrFlphX5pxO4v-1" value="I" style="ellipse;whiteSpace=wrap;html=1;aspect=fixed;" vertex="1" parent="1">
          <mxGeometry x="360.5" y="40" width="30" height="30" as="geometry" />
        </mxCell>
        <mxCell id="VU4PFcj9vpuYolGSLBWL-6" style="edgeStyle=orthogonalEdgeStyle;rounded=0;orthogonalLoop=1;jettySize=auto;html=1;exitX=0.5;exitY=1;exitDx=0;exitDy=0;entryX=0.5;entryY=0;entryDx=0;entryDy=0;" edge="1" parent="1" source="KNu51w0LrFlphX5pxO4v-2" target="KNu51w0LrFlphX5pxO4v-3">
          <mxGeometry relative="1" as="geometry" />
        </mxCell>
        <mxCell id="KNu51w0LrFlphX5pxO4v-2" value="initialise list sep with separators &#39; &#39;, &#39;,&#39;, &#39;;&#39;" style="rounded=0;whiteSpace=wrap;html=1;" vertex="1" parent="1">
          <mxGeometry x="313" y="110" width="125" height="50" as="geometry" />
        </mxCell>
        <mxCell id="VU4PFcj9vpuYolGSLBWL-7" style="edgeStyle=orthogonalEdgeStyle;rounded=0;orthogonalLoop=1;jettySize=auto;html=1;exitX=0.5;exitY=1;exitDx=0;exitDy=0;entryX=0.5;entryY=0;entryDx=0;entryDy=0;" edge="1" parent="1" source="KNu51w0LrFlphX5pxO4v-3" target="KNu51w0LrFlphX5pxO4v-4">
          <mxGeometry relative="1" as="geometry" />
        </mxCell>
        <mxCell id="KNu51w0LrFlphX5pxO4v-3" value="y=len(x)&lt;div&gt;i=0&lt;/div&gt;" style="rounded=0;whiteSpace=wrap;html=1;" vertex="1" parent="1">
          <mxGeometry x="315.5" y="190" width="120" height="40" as="geometry" />
        </mxCell>
        <mxCell id="VU4PFcj9vpuYolGSLBWL-8" style="edgeStyle=orthogonalEdgeStyle;rounded=0;orthogonalLoop=1;jettySize=auto;html=1;exitX=0.5;exitY=1;exitDx=0;exitDy=0;entryX=0.5;entryY=0;entryDx=0;entryDy=0;" edge="1" parent="1" source="KNu51w0LrFlphX5pxO4v-4" target="q8HNoRNN5ZH4drquieR--1">
          <mxGeometry relative="1" as="geometry" />
        </mxCell>
        <mxCell id="VU4PFcj9vpuYolGSLBWL-9" value="YES" style="edgeLabel;html=1;align=center;verticalAlign=middle;resizable=0;points=[];" vertex="1" connectable="0" parent="VU4PFcj9vpuYolGSLBWL-8">
          <mxGeometry x="-0.2582" relative="1" as="geometry">
            <mxPoint as="offset" />
          </mxGeometry>
        </mxCell>
        <mxCell id="KNu51w0LrFlphX5pxO4v-4" value="while i&amp;lt;y" style="rhombus;whiteSpace=wrap;html=1;" vertex="1" parent="1">
          <mxGeometry x="325.5" y="270" width="100" height="100" as="geometry" />
        </mxCell>
        <mxCell id="VU4PFcj9vpuYolGSLBWL-10" style="edgeStyle=orthogonalEdgeStyle;rounded=0;orthogonalLoop=1;jettySize=auto;html=1;exitX=0.5;exitY=1;exitDx=0;exitDy=0;entryX=0.5;entryY=0;entryDx=0;entryDy=0;" edge="1" parent="1" source="q8HNoRNN5ZH4drquieR--1" target="q8HNoRNN5ZH4drquieR--2">
          <mxGeometry relative="1" as="geometry" />
        </mxCell>
        <mxCell id="q8HNoRNN5ZH4drquieR--1" value="empty string s&lt;div&gt;empty string sign&lt;/div&gt;" style="rounded=0;whiteSpace=wrap;html=1;" vertex="1" parent="1">
          <mxGeometry x="315.5" y="410" width="120" height="40" as="geometry" />
        </mxCell>
        <mxCell id="VU4PFcj9vpuYolGSLBWL-11" value="" style="edgeStyle=orthogonalEdgeStyle;rounded=0;orthogonalLoop=1;jettySize=auto;html=1;" edge="1" parent="1" source="q8HNoRNN5ZH4drquieR--2" target="VU4PFcj9vpuYolGSLBWL-1">
          <mxGeometry relative="1" as="geometry" />
        </mxCell>
        <mxCell id="VU4PFcj9vpuYolGSLBWL-12" value="YES" style="edgeLabel;html=1;align=center;verticalAlign=middle;resizable=0;points=[];" vertex="1" connectable="0" parent="VU4PFcj9vpuYolGSLBWL-11">
          <mxGeometry x="0.3494" relative="1" as="geometry">
            <mxPoint y="-7" as="offset" />
          </mxGeometry>
        </mxCell>
        <mxCell id="q8HNoRNN5ZH4drquieR--2" value="while i&amp;lt;y&lt;div&gt;and x[i] not in sep&lt;/div&gt;" style="rhombus;whiteSpace=wrap;html=1;" vertex="1" parent="1">
          <mxGeometry x="320.5" y="480" width="110" height="110" as="geometry" />
        </mxCell>
        <mxCell id="VU4PFcj9vpuYolGSLBWL-13" value="" style="edgeStyle=orthogonalEdgeStyle;rounded=0;orthogonalLoop=1;jettySize=auto;html=1;" edge="1" parent="1" source="VU4PFcj9vpuYolGSLBWL-1" target="VU4PFcj9vpuYolGSLBWL-2">
          <mxGeometry relative="1" as="geometry" />
        </mxCell>
        <mxCell id="VU4PFcj9vpuYolGSLBWL-14" value="YES" style="edgeLabel;html=1;align=center;verticalAlign=middle;resizable=0;points=[];" vertex="1" connectable="0" parent="VU4PFcj9vpuYolGSLBWL-13">
          <mxGeometry x="-0.191" y="2" relative="1" as="geometry">
            <mxPoint as="offset" />
          </mxGeometry>
        </mxCell>
        <mxCell id="VU4PFcj9vpuYolGSLBWL-18" value="" style="edgeStyle=orthogonalEdgeStyle;rounded=0;orthogonalLoop=1;jettySize=auto;html=1;" edge="1" parent="1" source="VU4PFcj9vpuYolGSLBWL-1" target="VU4PFcj9vpuYolGSLBWL-3">
          <mxGeometry relative="1" as="geometry" />
        </mxCell>
        <mxCell id="VU4PFcj9vpuYolGSLBWL-1" value="if x[i]=&#39;+&#39; or &#39;-&#39;" style="rhombus;whiteSpace=wrap;html=1;" vertex="1" parent="1">
          <mxGeometry x="325.5" y="630" width="100" height="100" as="geometry" />
        </mxCell>
        <mxCell id="VU4PFcj9vpuYolGSLBWL-2" value="sign=x[i]&lt;div&gt;i+=1&lt;/div&gt;" style="rounded=0;whiteSpace=wrap;html=1;" vertex="1" parent="1">
          <mxGeometry x="490" y="660" width="120" height="40" as="geometry" />
        </mxCell>
        <mxCell id="VU4PFcj9vpuYolGSLBWL-19" style="edgeStyle=orthogonalEdgeStyle;rounded=0;orthogonalLoop=1;jettySize=auto;html=1;entryX=0.5;entryY=1;entryDx=0;entryDy=0;" edge="1" parent="1" source="VU4PFcj9vpuYolGSLBWL-3" target="VU4PFcj9vpuYolGSLBWL-4">
          <mxGeometry relative="1" as="geometry" />
        </mxCell>
        <mxCell id="VU4PFcj9vpuYolGSLBWL-31" style="edgeStyle=orthogonalEdgeStyle;rounded=0;orthogonalLoop=1;jettySize=auto;html=1;exitX=0.5;exitY=1;exitDx=0;exitDy=0;entryX=0.5;entryY=0;entryDx=0;entryDy=0;" edge="1" parent="1" source="VU4PFcj9vpuYolGSLBWL-3" target="VU4PFcj9vpuYolGSLBWL-21">
          <mxGeometry relative="1" as="geometry" />
        </mxCell>
        <mxCell id="VU4PFcj9vpuYolGSLBWL-3" value="s=s+x[i]" style="rounded=0;whiteSpace=wrap;html=1;" vertex="1" parent="1">
          <mxGeometry x="315.5" y="770" width="120" height="40" as="geometry" />
        </mxCell>
        <mxCell id="VU4PFcj9vpuYolGSLBWL-20" style="edgeStyle=orthogonalEdgeStyle;rounded=0;orthogonalLoop=1;jettySize=auto;html=1;" edge="1" parent="1" source="VU4PFcj9vpuYolGSLBWL-4">
          <mxGeometry relative="1" as="geometry">
            <mxPoint x="370" y="470" as="targetPoint" />
            <Array as="points">
              <mxPoint x="200" y="470" />
            </Array>
          </mxGeometry>
        </mxCell>
        <mxCell id="VU4PFcj9vpuYolGSLBWL-4" value="i+=1" style="rounded=0;whiteSpace=wrap;html=1;" vertex="1" parent="1">
          <mxGeometry x="140" y="650" width="120" height="40" as="geometry" />
        </mxCell>
        <mxCell id="VU4PFcj9vpuYolGSLBWL-22" style="edgeStyle=orthogonalEdgeStyle;rounded=0;orthogonalLoop=1;jettySize=auto;html=1;exitX=1;exitY=0.5;exitDx=0;exitDy=0;entryX=0;entryY=0.5;entryDx=0;entryDy=0;" edge="1" parent="1" source="VU4PFcj9vpuYolGSLBWL-21" target="VU4PFcj9vpuYolGSLBWL-23">
          <mxGeometry relative="1" as="geometry">
            <mxPoint x="460" y="890" as="targetPoint" />
          </mxGeometry>
        </mxCell>
        <mxCell id="VU4PFcj9vpuYolGSLBWL-24" value="YES" style="edgeLabel;html=1;align=center;verticalAlign=middle;resizable=0;points=[];" vertex="1" connectable="0" parent="VU4PFcj9vpuYolGSLBWL-22">
          <mxGeometry x="0.1776" y="2" relative="1" as="geometry">
            <mxPoint x="-7" y="2" as="offset" />
          </mxGeometry>
        </mxCell>
        <mxCell id="VU4PFcj9vpuYolGSLBWL-39" value="" style="edgeStyle=orthogonalEdgeStyle;rounded=0;orthogonalLoop=1;jettySize=auto;html=1;" edge="1" parent="1" source="VU4PFcj9vpuYolGSLBWL-21" target="VU4PFcj9vpuYolGSLBWL-37">
          <mxGeometry relative="1" as="geometry" />
        </mxCell>
        <mxCell id="VU4PFcj9vpuYolGSLBWL-40" value="NO" style="edgeLabel;html=1;align=center;verticalAlign=middle;resizable=0;points=[];" vertex="1" connectable="0" parent="VU4PFcj9vpuYolGSLBWL-39">
          <mxGeometry x="-0.18" y="1" relative="1" as="geometry">
            <mxPoint as="offset" />
          </mxGeometry>
        </mxCell>
        <mxCell id="VU4PFcj9vpuYolGSLBWL-21" value="if s is not empty" style="rhombus;whiteSpace=wrap;html=1;" vertex="1" parent="1">
          <mxGeometry x="325.5" y="840" width="100" height="100" as="geometry" />
        </mxCell>
        <mxCell id="VU4PFcj9vpuYolGSLBWL-25" style="edgeStyle=orthogonalEdgeStyle;rounded=0;orthogonalLoop=1;jettySize=auto;html=1;exitX=1;exitY=0.5;exitDx=0;exitDy=0;entryX=0;entryY=0.5;entryDx=0;entryDy=0;" edge="1" parent="1" source="VU4PFcj9vpuYolGSLBWL-23" target="VU4PFcj9vpuYolGSLBWL-26">
          <mxGeometry relative="1" as="geometry">
            <mxPoint x="610" y="890" as="targetPoint" />
          </mxGeometry>
        </mxCell>
        <mxCell id="VU4PFcj9vpuYolGSLBWL-27" value="YES" style="edgeLabel;html=1;align=center;verticalAlign=middle;resizable=0;points=[];" vertex="1" connectable="0" parent="VU4PFcj9vpuYolGSLBWL-25">
          <mxGeometry x="-0.3205" relative="1" as="geometry">
            <mxPoint as="offset" />
          </mxGeometry>
        </mxCell>
        <mxCell id="VU4PFcj9vpuYolGSLBWL-23" value="s=&#39;-&#39;" style="rhombus;whiteSpace=wrap;html=1;" vertex="1" parent="1">
          <mxGeometry x="480" y="840" width="100" height="100" as="geometry" />
        </mxCell>
        <mxCell id="VU4PFcj9vpuYolGSLBWL-26" value="li.append(-int(s))" style="rounded=0;whiteSpace=wrap;html=1;" vertex="1" parent="1">
          <mxGeometry x="620" y="870" width="120" height="40" as="geometry" />
        </mxCell>
        <mxCell id="VU4PFcj9vpuYolGSLBWL-28" value="li.append(int(s))" style="rounded=0;whiteSpace=wrap;html=1;" vertex="1" parent="1">
          <mxGeometry x="480" y="980" width="120" height="40" as="geometry" />
        </mxCell>
        <mxCell id="VU4PFcj9vpuYolGSLBWL-29" style="edgeStyle=orthogonalEdgeStyle;rounded=0;orthogonalLoop=1;jettySize=auto;html=1;exitX=0.5;exitY=1;exitDx=0;exitDy=0;entryX=0.424;entryY=-0.052;entryDx=0;entryDy=0;entryPerimeter=0;" edge="1" parent="1" source="VU4PFcj9vpuYolGSLBWL-23" target="VU4PFcj9vpuYolGSLBWL-28">
          <mxGeometry relative="1" as="geometry" />
        </mxCell>
        <mxCell id="VU4PFcj9vpuYolGSLBWL-30" value="NO" style="edgeLabel;html=1;align=center;verticalAlign=middle;resizable=0;points=[];" vertex="1" connectable="0" parent="VU4PFcj9vpuYolGSLBWL-29">
          <mxGeometry x="-0.0425" y="1" relative="1" as="geometry">
            <mxPoint as="offset" />
          </mxGeometry>
        </mxCell>
        <mxCell id="VU4PFcj9vpuYolGSLBWL-41" style="edgeStyle=orthogonalEdgeStyle;rounded=0;orthogonalLoop=1;jettySize=auto;html=1;exitX=0;exitY=0.5;exitDx=0;exitDy=0;" edge="1" parent="1" source="VU4PFcj9vpuYolGSLBWL-37">
          <mxGeometry relative="1" as="geometry">
            <mxPoint x="370" y="243.7254638671875" as="targetPoint" />
            <Array as="points">
              <mxPoint x="80" y="1010" />
              <mxPoint x="80" y="240" />
              <mxPoint x="371" y="240" />
            </Array>
          </mxGeometry>
        </mxCell>
        <mxCell id="VU4PFcj9vpuYolGSLBWL-37" value="i+=1" style="rounded=0;whiteSpace=wrap;html=1;" vertex="1" parent="1">
          <mxGeometry x="315.5" y="990" width="120" height="40" as="geometry" />
        </mxCell>
      </root>
    </mxGraphModel>
  </diagram>
  <diagram id="EVsH7kc7Q2e6F8-eq9Dc" name="Page-3">
    <mxGraphModel dx="1261" dy="636" grid="1" gridSize="10" guides="1" tooltips="1" connect="1" arrows="1" fold="1" page="1" pageScale="1" pageWidth="827" pageHeight="1169" math="0" shadow="0">
      <root>
        <mxCell id="0" />
        <mxCell id="1" parent="0" />
        <mxCell id="UwHK_UtlC-lU4RkZaa2--1" style="edgeStyle=orthogonalEdgeStyle;rounded=0;orthogonalLoop=1;jettySize=auto;html=1;exitX=0.5;exitY=1;exitDx=0;exitDy=0;entryX=0.5;entryY=0;entryDx=0;entryDy=0;" edge="1" parent="1" source="UwHK_UtlC-lU4RkZaa2--2" target="UwHK_UtlC-lU4RkZaa2--7">
          <mxGeometry relative="1" as="geometry" />
        </mxCell>
        <mxCell id="UwHK_UtlC-lU4RkZaa2--2" value="START" style="rounded=1;whiteSpace=wrap;html=1;arcSize=46;" vertex="1" parent="1">
          <mxGeometry x="110" y="40" width="120" height="60" as="geometry" />
        </mxCell>
        <mxCell id="UwHK_UtlC-lU4RkZaa2--3" value="END" style="rounded=1;whiteSpace=wrap;html=1;arcSize=46;" vertex="1" parent="1">
          <mxGeometry x="110" y="800" width="120" height="60" as="geometry" />
        </mxCell>
        <mxCell id="UwHK_UtlC-lU4RkZaa2--4" style="edgeStyle=orthogonalEdgeStyle;rounded=0;orthogonalLoop=1;jettySize=auto;html=1;exitX=0.5;exitY=1;exitDx=0;exitDy=0;entryX=0.5;entryY=0;entryDx=0;entryDy=0;" edge="1" parent="1" source="UwHK_UtlC-lU4RkZaa2--5" target="UwHK_UtlC-lU4RkZaa2--14">
          <mxGeometry relative="1" as="geometry" />
        </mxCell>
        <mxCell id="UwHK_UtlC-lU4RkZaa2--5" value="found=0&lt;div&gt;j=0&lt;/div&gt;" style="rounded=0;whiteSpace=wrap;html=1;" vertex="1" parent="1">
          <mxGeometry x="110" y="360" width="120" height="40" as="geometry" />
        </mxCell>
        <mxCell id="UwHK_UtlC-lU4RkZaa2--6" style="edgeStyle=orthogonalEdgeStyle;rounded=0;orthogonalLoop=1;jettySize=auto;html=1;exitX=0.5;exitY=1;exitDx=0;exitDy=0;entryX=0.5;entryY=0;entryDx=0;entryDy=0;" edge="1" parent="1" source="UwHK_UtlC-lU4RkZaa2--7" target="UwHK_UtlC-lU4RkZaa2--18">
          <mxGeometry relative="1" as="geometry" />
        </mxCell>
        <mxCell id="UwHK_UtlC-lU4RkZaa2--7" value="input int M&lt;div&gt;input string x&lt;/div&gt;&lt;div&gt;input int N&lt;/div&gt;" style="shape=parallelogram;perimeter=parallelogramPerimeter;whiteSpace=wrap;html=1;fixedSize=1;" vertex="1" parent="1">
          <mxGeometry x="110" y="140" width="120" height="60" as="geometry" />
        </mxCell>
        <mxCell id="UwHK_UtlC-lU4RkZaa2--8" style="edgeStyle=orthogonalEdgeStyle;rounded=0;orthogonalLoop=1;jettySize=auto;html=1;exitX=0.5;exitY=1;exitDx=0;exitDy=0;entryX=0.5;entryY=0;entryDx=0;entryDy=0;" edge="1" parent="1" source="UwHK_UtlC-lU4RkZaa2--9" target="UwHK_UtlC-lU4RkZaa2--5">
          <mxGeometry relative="1" as="geometry" />
        </mxCell>
        <mxCell id="UwHK_UtlC-lU4RkZaa2--9" value="I" style="ellipse;whiteSpace=wrap;html=1;aspect=fixed;" vertex="1" parent="1">
          <mxGeometry x="155" y="300" width="30" height="30" as="geometry" />
        </mxCell>
        <mxCell id="UwHK_UtlC-lU4RkZaa2--12" style="edgeStyle=orthogonalEdgeStyle;rounded=0;orthogonalLoop=1;jettySize=auto;html=1;exitX=1;exitY=0.5;exitDx=0;exitDy=0;entryX=0;entryY=0.5;entryDx=0;entryDy=0;" edge="1" parent="1" source="UwHK_UtlC-lU4RkZaa2--14">
          <mxGeometry relative="1" as="geometry">
            <mxPoint x="294" y="510" as="targetPoint" />
          </mxGeometry>
        </mxCell>
        <mxCell id="UwHK_UtlC-lU4RkZaa2--13" value="YES" style="edgeLabel;html=1;align=center;verticalAlign=middle;resizable=0;points=[];" vertex="1" connectable="0" parent="UwHK_UtlC-lU4RkZaa2--12">
          <mxGeometry x="-0.453" relative="1" as="geometry">
            <mxPoint as="offset" />
          </mxGeometry>
        </mxCell>
        <mxCell id="UwHK_UtlC-lU4RkZaa2--34" value="" style="edgeStyle=orthogonalEdgeStyle;rounded=0;orthogonalLoop=1;jettySize=auto;html=1;" edge="1" parent="1" source="UwHK_UtlC-lU4RkZaa2--14" target="UwHK_UtlC-lU4RkZaa2--26">
          <mxGeometry relative="1" as="geometry" />
        </mxCell>
        <mxCell id="UwHK_UtlC-lU4RkZaa2--14" value="for&amp;nbsp;&lt;div&gt;i in range(0,M)&lt;/div&gt;" style="rhombus;whiteSpace=wrap;html=1;" vertex="1" parent="1">
          <mxGeometry x="120" y="460" width="100" height="100" as="geometry" />
        </mxCell>
        <mxCell id="UwHK_UtlC-lU4RkZaa2--17" style="edgeStyle=orthogonalEdgeStyle;rounded=0;orthogonalLoop=1;jettySize=auto;html=1;exitX=0.5;exitY=1;exitDx=0;exitDy=0;entryX=0.5;entryY=0;entryDx=0;entryDy=0;" edge="1" parent="1" source="UwHK_UtlC-lU4RkZaa2--18" target="UwHK_UtlC-lU4RkZaa2--9">
          <mxGeometry relative="1" as="geometry" />
        </mxCell>
        <mxCell id="UwHK_UtlC-lU4RkZaa2--18" value="initialise empty list li" style="rounded=0;whiteSpace=wrap;html=1;" vertex="1" parent="1">
          <mxGeometry x="110" y="230" width="120" height="40" as="geometry" />
        </mxCell>
        <mxCell id="UwHK_UtlC-lU4RkZaa2--28" value="" style="edgeStyle=orthogonalEdgeStyle;rounded=0;orthogonalLoop=1;jettySize=auto;html=1;" edge="1" parent="1" source="UwHK_UtlC-lU4RkZaa2--20" target="UwHK_UtlC-lU4RkZaa2--3">
          <mxGeometry relative="1" as="geometry" />
        </mxCell>
        <mxCell id="UwHK_UtlC-lU4RkZaa2--20" value="print add" style="shape=parallelogram;perimeter=parallelogramPerimeter;whiteSpace=wrap;html=1;fixedSize=1;" vertex="1" parent="1">
          <mxGeometry x="110" y="720" width="120" height="40" as="geometry" />
        </mxCell>
        <mxCell id="UwHK_UtlC-lU4RkZaa2--23" value="" style="edgeStyle=orthogonalEdgeStyle;rounded=0;orthogonalLoop=1;jettySize=auto;html=1;" edge="1" parent="1" source="UwHK_UtlC-lU4RkZaa2--21" target="UwHK_UtlC-lU4RkZaa2--22">
          <mxGeometry relative="1" as="geometry" />
        </mxCell>
        <mxCell id="UwHK_UtlC-lU4RkZaa2--21" value="if N==li[i]" style="rhombus;whiteSpace=wrap;html=1;" vertex="1" parent="1">
          <mxGeometry x="290" y="460" width="100" height="100" as="geometry" />
        </mxCell>
        <mxCell id="UwHK_UtlC-lU4RkZaa2--25" style="edgeStyle=orthogonalEdgeStyle;rounded=0;orthogonalLoop=1;jettySize=auto;html=1;exitX=0.5;exitY=0;exitDx=0;exitDy=0;" edge="1" parent="1" source="UwHK_UtlC-lU4RkZaa2--22">
          <mxGeometry relative="1" as="geometry">
            <mxPoint x="170" y="440" as="targetPoint" />
            <Array as="points">
              <mxPoint x="480" y="440" />
            </Array>
          </mxGeometry>
        </mxCell>
        <mxCell id="UwHK_UtlC-lU4RkZaa2--22" value="found=1&lt;div&gt;j=i&lt;/div&gt;" style="rounded=0;whiteSpace=wrap;html=1;" vertex="1" parent="1">
          <mxGeometry x="420" y="490" width="120" height="40" as="geometry" />
        </mxCell>
        <mxCell id="UwHK_UtlC-lU4RkZaa2--29" value="" style="edgeStyle=orthogonalEdgeStyle;rounded=0;orthogonalLoop=1;jettySize=auto;html=1;" edge="1" parent="1" source="UwHK_UtlC-lU4RkZaa2--26" target="UwHK_UtlC-lU4RkZaa2--27">
          <mxGeometry relative="1" as="geometry" />
        </mxCell>
        <mxCell id="UwHK_UtlC-lU4RkZaa2--31" value="YES" style="edgeLabel;html=1;align=center;verticalAlign=middle;resizable=0;points=[];" vertex="1" connectable="0" parent="UwHK_UtlC-lU4RkZaa2--29">
          <mxGeometry x="-0.1364" relative="1" as="geometry">
            <mxPoint as="offset" />
          </mxGeometry>
        </mxCell>
        <mxCell id="UwHK_UtlC-lU4RkZaa2--30" value="" style="edgeStyle=orthogonalEdgeStyle;rounded=0;orthogonalLoop=1;jettySize=auto;html=1;" edge="1" parent="1" source="UwHK_UtlC-lU4RkZaa2--26" target="UwHK_UtlC-lU4RkZaa2--20">
          <mxGeometry relative="1" as="geometry" />
        </mxCell>
        <mxCell id="UwHK_UtlC-lU4RkZaa2--32" value="NO" style="edgeLabel;html=1;align=center;verticalAlign=middle;resizable=0;points=[];" vertex="1" connectable="0" parent="UwHK_UtlC-lU4RkZaa2--30">
          <mxGeometry x="-0.6906" relative="1" as="geometry">
            <mxPoint as="offset" />
          </mxGeometry>
        </mxCell>
        <mxCell id="UwHK_UtlC-lU4RkZaa2--26" value="if found==0" style="rhombus;whiteSpace=wrap;html=1;" vertex="1" parent="1">
          <mxGeometry x="120" y="590" width="100" height="100" as="geometry" />
        </mxCell>
        <mxCell id="UwHK_UtlC-lU4RkZaa2--33" style="edgeStyle=orthogonalEdgeStyle;rounded=0;orthogonalLoop=1;jettySize=auto;html=1;exitX=1;exitY=0.5;exitDx=0;exitDy=0;entryX=1;entryY=0.5;entryDx=0;entryDy=0;" edge="1" parent="1" source="UwHK_UtlC-lU4RkZaa2--27" target="UwHK_UtlC-lU4RkZaa2--3">
          <mxGeometry relative="1" as="geometry">
            <Array as="points">
              <mxPoint x="410" y="640" />
              <mxPoint x="410" y="830" />
            </Array>
          </mxGeometry>
        </mxCell>
        <mxCell id="UwHK_UtlC-lU4RkZaa2--27" value="print j" style="shape=parallelogram;perimeter=parallelogramPerimeter;whiteSpace=wrap;html=1;fixedSize=1;" vertex="1" parent="1">
          <mxGeometry x="260" y="620" width="120" height="40" as="geometry" />
        </mxCell>
      </root>
    </mxGraphModel>
  </diagram>
  <diagram id="R9oTxeWsCRVk4RcvAJ7S" name="Page-4">
    <mxGraphModel dx="1261" dy="636" grid="1" gridSize="10" guides="1" tooltips="1" connect="1" arrows="1" fold="1" page="1" pageScale="1" pageWidth="827" pageHeight="1169" math="0" shadow="0">
      <root>
        <mxCell id="0" />
        <mxCell id="1" parent="0" />
        <mxCell id="lYfBllmDXqWvDnXqMIag-1" style="edgeStyle=orthogonalEdgeStyle;rounded=0;orthogonalLoop=1;jettySize=auto;html=1;exitX=0.5;exitY=1;exitDx=0;exitDy=0;entryX=0.5;entryY=0;entryDx=0;entryDy=0;" edge="1" parent="1" source="lYfBllmDXqWvDnXqMIag-2" target="lYfBllmDXqWvDnXqMIag-4">
          <mxGeometry relative="1" as="geometry" />
        </mxCell>
        <mxCell id="lYfBllmDXqWvDnXqMIag-2" value="I" style="ellipse;whiteSpace=wrap;html=1;aspect=fixed;" vertex="1" parent="1">
          <mxGeometry x="360.5" y="40" width="30" height="30" as="geometry" />
        </mxCell>
        <mxCell id="lYfBllmDXqWvDnXqMIag-3" style="edgeStyle=orthogonalEdgeStyle;rounded=0;orthogonalLoop=1;jettySize=auto;html=1;exitX=0.5;exitY=1;exitDx=0;exitDy=0;entryX=0.5;entryY=0;entryDx=0;entryDy=0;" edge="1" parent="1" source="lYfBllmDXqWvDnXqMIag-4" target="lYfBllmDXqWvDnXqMIag-6">
          <mxGeometry relative="1" as="geometry" />
        </mxCell>
        <mxCell id="lYfBllmDXqWvDnXqMIag-4" value="initialise list sep with separators &#39; &#39;, &#39;,&#39;, &#39;;&#39;" style="rounded=0;whiteSpace=wrap;html=1;" vertex="1" parent="1">
          <mxGeometry x="313" y="110" width="125" height="50" as="geometry" />
        </mxCell>
        <mxCell id="lYfBllmDXqWvDnXqMIag-5" style="edgeStyle=orthogonalEdgeStyle;rounded=0;orthogonalLoop=1;jettySize=auto;html=1;exitX=0.5;exitY=1;exitDx=0;exitDy=0;entryX=0.5;entryY=0;entryDx=0;entryDy=0;" edge="1" parent="1" source="lYfBllmDXqWvDnXqMIag-6" target="lYfBllmDXqWvDnXqMIag-9">
          <mxGeometry relative="1" as="geometry" />
        </mxCell>
        <mxCell id="lYfBllmDXqWvDnXqMIag-6" value="y=len(x)&lt;div&gt;i=0&lt;/div&gt;" style="rounded=0;whiteSpace=wrap;html=1;" vertex="1" parent="1">
          <mxGeometry x="315.5" y="190" width="120" height="40" as="geometry" />
        </mxCell>
        <mxCell id="lYfBllmDXqWvDnXqMIag-7" style="edgeStyle=orthogonalEdgeStyle;rounded=0;orthogonalLoop=1;jettySize=auto;html=1;exitX=0.5;exitY=1;exitDx=0;exitDy=0;entryX=0.5;entryY=0;entryDx=0;entryDy=0;" edge="1" parent="1" source="lYfBllmDXqWvDnXqMIag-9" target="lYfBllmDXqWvDnXqMIag-11">
          <mxGeometry relative="1" as="geometry" />
        </mxCell>
        <mxCell id="lYfBllmDXqWvDnXqMIag-8" value="YES" style="edgeLabel;html=1;align=center;verticalAlign=middle;resizable=0;points=[];" vertex="1" connectable="0" parent="lYfBllmDXqWvDnXqMIag-7">
          <mxGeometry x="-0.2582" relative="1" as="geometry">
            <mxPoint as="offset" />
          </mxGeometry>
        </mxCell>
        <mxCell id="lYfBllmDXqWvDnXqMIag-9" value="while i&amp;lt;y" style="rhombus;whiteSpace=wrap;html=1;" vertex="1" parent="1">
          <mxGeometry x="325.5" y="270" width="100" height="100" as="geometry" />
        </mxCell>
        <mxCell id="lYfBllmDXqWvDnXqMIag-10" style="edgeStyle=orthogonalEdgeStyle;rounded=0;orthogonalLoop=1;jettySize=auto;html=1;exitX=0.5;exitY=1;exitDx=0;exitDy=0;entryX=0.5;entryY=0;entryDx=0;entryDy=0;" edge="1" parent="1" source="lYfBllmDXqWvDnXqMIag-11" target="lYfBllmDXqWvDnXqMIag-14">
          <mxGeometry relative="1" as="geometry" />
        </mxCell>
        <mxCell id="lYfBllmDXqWvDnXqMIag-11" value="empty string s" style="rounded=0;whiteSpace=wrap;html=1;" vertex="1" parent="1">
          <mxGeometry x="315.5" y="410" width="120" height="40" as="geometry" />
        </mxCell>
        <mxCell id="lYfBllmDXqWvDnXqMIag-12" value="" style="edgeStyle=orthogonalEdgeStyle;rounded=0;orthogonalLoop=1;jettySize=auto;html=1;entryX=0.5;entryY=0;entryDx=0;entryDy=0;" edge="1" parent="1" source="lYfBllmDXqWvDnXqMIag-14" target="lYfBllmDXqWvDnXqMIag-22">
          <mxGeometry relative="1" as="geometry">
            <mxPoint x="375.5" y="630" as="targetPoint" />
          </mxGeometry>
        </mxCell>
        <mxCell id="lYfBllmDXqWvDnXqMIag-13" value="YES" style="edgeLabel;html=1;align=center;verticalAlign=middle;resizable=0;points=[];" vertex="1" connectable="0" parent="lYfBllmDXqWvDnXqMIag-12">
          <mxGeometry x="0.3494" relative="1" as="geometry">
            <mxPoint y="-7" as="offset" />
          </mxGeometry>
        </mxCell>
        <mxCell id="lYfBllmDXqWvDnXqMIag-14" value="while i&amp;lt;y&lt;div&gt;and x[i] not in sep&lt;/div&gt;" style="rhombus;whiteSpace=wrap;html=1;" vertex="1" parent="1">
          <mxGeometry x="320.5" y="480" width="110" height="110" as="geometry" />
        </mxCell>
        <mxCell id="lYfBllmDXqWvDnXqMIag-20" style="edgeStyle=orthogonalEdgeStyle;rounded=0;orthogonalLoop=1;jettySize=auto;html=1;entryX=0.5;entryY=1;entryDx=0;entryDy=0;" edge="1" parent="1" source="lYfBllmDXqWvDnXqMIag-22" target="lYfBllmDXqWvDnXqMIag-24">
          <mxGeometry relative="1" as="geometry" />
        </mxCell>
        <mxCell id="lYfBllmDXqWvDnXqMIag-38" value="" style="edgeStyle=orthogonalEdgeStyle;rounded=0;orthogonalLoop=1;jettySize=auto;html=1;" edge="1" parent="1" source="lYfBllmDXqWvDnXqMIag-22" target="lYfBllmDXqWvDnXqMIag-29">
          <mxGeometry relative="1" as="geometry" />
        </mxCell>
        <mxCell id="lYfBllmDXqWvDnXqMIag-22" value="s=s+x[i]" style="rounded=0;whiteSpace=wrap;html=1;" vertex="1" parent="1">
          <mxGeometry x="315.5" y="670" width="120" height="40" as="geometry" />
        </mxCell>
        <mxCell id="lYfBllmDXqWvDnXqMIag-23" style="edgeStyle=orthogonalEdgeStyle;rounded=0;orthogonalLoop=1;jettySize=auto;html=1;" edge="1" parent="1" source="lYfBllmDXqWvDnXqMIag-24">
          <mxGeometry relative="1" as="geometry">
            <mxPoint x="370" y="470" as="targetPoint" />
            <Array as="points">
              <mxPoint x="200" y="470" />
            </Array>
          </mxGeometry>
        </mxCell>
        <mxCell id="lYfBllmDXqWvDnXqMIag-24" value="i+=1" style="rounded=0;whiteSpace=wrap;html=1;" vertex="1" parent="1">
          <mxGeometry x="140" y="610" width="120" height="40" as="geometry" />
        </mxCell>
        <mxCell id="lYfBllmDXqWvDnXqMIag-25" style="edgeStyle=orthogonalEdgeStyle;rounded=0;orthogonalLoop=1;jettySize=auto;html=1;exitX=1;exitY=0.5;exitDx=0;exitDy=0;entryX=0;entryY=0.5;entryDx=0;entryDy=0;" edge="1" parent="1" source="lYfBllmDXqWvDnXqMIag-29">
          <mxGeometry relative="1" as="geometry">
            <mxPoint x="480" y="820" as="targetPoint" />
          </mxGeometry>
        </mxCell>
        <mxCell id="lYfBllmDXqWvDnXqMIag-26" value="YES" style="edgeLabel;html=1;align=center;verticalAlign=middle;resizable=0;points=[];" vertex="1" connectable="0" parent="lYfBllmDXqWvDnXqMIag-25">
          <mxGeometry x="0.1776" y="2" relative="1" as="geometry">
            <mxPoint x="-7" y="2" as="offset" />
          </mxGeometry>
        </mxCell>
        <mxCell id="lYfBllmDXqWvDnXqMIag-27" value="" style="edgeStyle=orthogonalEdgeStyle;rounded=0;orthogonalLoop=1;jettySize=auto;html=1;" edge="1" parent="1" source="lYfBllmDXqWvDnXqMIag-29" target="lYfBllmDXqWvDnXqMIag-37">
          <mxGeometry relative="1" as="geometry" />
        </mxCell>
        <mxCell id="lYfBllmDXqWvDnXqMIag-28" value="NO" style="edgeLabel;html=1;align=center;verticalAlign=middle;resizable=0;points=[];" vertex="1" connectable="0" parent="lYfBllmDXqWvDnXqMIag-27">
          <mxGeometry x="-0.18" y="1" relative="1" as="geometry">
            <mxPoint as="offset" />
          </mxGeometry>
        </mxCell>
        <mxCell id="lYfBllmDXqWvDnXqMIag-29" value="if s is not empty" style="rhombus;whiteSpace=wrap;html=1;" vertex="1" parent="1">
          <mxGeometry x="325.5" y="770" width="100" height="100" as="geometry" />
        </mxCell>
        <mxCell id="lYfBllmDXqWvDnXqMIag-33" value="li.append(s)" style="rounded=0;whiteSpace=wrap;html=1;" vertex="1" parent="1">
          <mxGeometry x="480" y="800" width="120" height="40" as="geometry" />
        </mxCell>
        <mxCell id="lYfBllmDXqWvDnXqMIag-36" style="edgeStyle=orthogonalEdgeStyle;rounded=0;orthogonalLoop=1;jettySize=auto;html=1;exitX=0;exitY=0.5;exitDx=0;exitDy=0;" edge="1" parent="1" source="lYfBllmDXqWvDnXqMIag-37">
          <mxGeometry relative="1" as="geometry">
            <mxPoint x="370" y="243.7254638671875" as="targetPoint" />
            <Array as="points">
              <mxPoint x="80" y="950" />
              <mxPoint x="80" y="240" />
              <mxPoint x="371" y="240" />
            </Array>
          </mxGeometry>
        </mxCell>
        <mxCell id="lYfBllmDXqWvDnXqMIag-37" value="i+=1" style="rounded=0;whiteSpace=wrap;html=1;" vertex="1" parent="1">
          <mxGeometry x="315.5" y="930" width="120" height="40" as="geometry" />
        </mxCell>
      </root>
    </mxGraphModel>
  </diagram>
  <diagram id="ePUcPgVUZtC7cMHrYvZW" name="Page-5">
    <mxGraphModel dx="1261" dy="636" grid="1" gridSize="10" guides="1" tooltips="1" connect="1" arrows="1" fold="1" page="1" pageScale="1" pageWidth="827" pageHeight="1169" math="0" shadow="0">
      <root>
        <mxCell id="0" />
        <mxCell id="1" parent="0" />
        <mxCell id="8363-r26eQO506Y7VDTV-1" style="edgeStyle=orthogonalEdgeStyle;rounded=0;orthogonalLoop=1;jettySize=auto;html=1;exitX=0.5;exitY=1;exitDx=0;exitDy=0;entryX=0.5;entryY=0;entryDx=0;entryDy=0;" edge="1" parent="1" source="8363-r26eQO506Y7VDTV-2" target="8363-r26eQO506Y7VDTV-7">
          <mxGeometry relative="1" as="geometry" />
        </mxCell>
        <mxCell id="8363-r26eQO506Y7VDTV-2" value="START" style="rounded=1;whiteSpace=wrap;html=1;arcSize=46;" vertex="1" parent="1">
          <mxGeometry x="110" y="40" width="120" height="60" as="geometry" />
        </mxCell>
        <mxCell id="8363-r26eQO506Y7VDTV-3" value="END" style="rounded=1;whiteSpace=wrap;html=1;arcSize=46;" vertex="1" parent="1">
          <mxGeometry x="110" y="460" width="120" height="60" as="geometry" />
        </mxCell>
        <mxCell id="8363-r26eQO506Y7VDTV-4" style="edgeStyle=orthogonalEdgeStyle;rounded=0;orthogonalLoop=1;jettySize=auto;html=1;exitX=0.5;exitY=1;exitDx=0;exitDy=0;entryX=0.5;entryY=0;entryDx=0;entryDy=0;" edge="1" parent="1" source="8363-r26eQO506Y7VDTV-5">
          <mxGeometry relative="1" as="geometry">
            <mxPoint x="170" y="460" as="targetPoint" />
          </mxGeometry>
        </mxCell>
        <mxCell id="8363-r26eQO506Y7VDTV-5" value="reflection(li,m)" style="rounded=0;whiteSpace=wrap;html=1;" vertex="1" parent="1">
          <mxGeometry x="110" y="360" width="120" height="40" as="geometry" />
        </mxCell>
        <mxCell id="8363-r26eQO506Y7VDTV-6" style="edgeStyle=orthogonalEdgeStyle;rounded=0;orthogonalLoop=1;jettySize=auto;html=1;exitX=0.5;exitY=1;exitDx=0;exitDy=0;entryX=0.5;entryY=0;entryDx=0;entryDy=0;" edge="1" parent="1" source="8363-r26eQO506Y7VDTV-7" target="8363-r26eQO506Y7VDTV-18">
          <mxGeometry relative="1" as="geometry" />
        </mxCell>
        <mxCell id="8363-r26eQO506Y7VDTV-7" value="input int M&lt;div&gt;input string x&lt;/div&gt;" style="shape=parallelogram;perimeter=parallelogramPerimeter;whiteSpace=wrap;html=1;fixedSize=1;" vertex="1" parent="1">
          <mxGeometry x="110" y="140" width="120" height="60" as="geometry" />
        </mxCell>
        <mxCell id="8363-r26eQO506Y7VDTV-8" style="edgeStyle=orthogonalEdgeStyle;rounded=0;orthogonalLoop=1;jettySize=auto;html=1;exitX=0.5;exitY=1;exitDx=0;exitDy=0;entryX=0.5;entryY=0;entryDx=0;entryDy=0;" edge="1" parent="1" source="8363-r26eQO506Y7VDTV-9" target="8363-r26eQO506Y7VDTV-5">
          <mxGeometry relative="1" as="geometry" />
        </mxCell>
        <mxCell id="8363-r26eQO506Y7VDTV-9" value="I" style="ellipse;whiteSpace=wrap;html=1;aspect=fixed;" vertex="1" parent="1">
          <mxGeometry x="155" y="300" width="30" height="30" as="geometry" />
        </mxCell>
        <mxCell id="8363-r26eQO506Y7VDTV-17" style="edgeStyle=orthogonalEdgeStyle;rounded=0;orthogonalLoop=1;jettySize=auto;html=1;exitX=0.5;exitY=1;exitDx=0;exitDy=0;entryX=0.5;entryY=0;entryDx=0;entryDy=0;" edge="1" parent="1" source="8363-r26eQO506Y7VDTV-18" target="8363-r26eQO506Y7VDTV-9">
          <mxGeometry relative="1" as="geometry" />
        </mxCell>
        <mxCell id="8363-r26eQO506Y7VDTV-18" value="initialise empty list li&lt;div&gt;m=int(M)&lt;/div&gt;" style="rounded=0;whiteSpace=wrap;html=1;" vertex="1" parent="1">
          <mxGeometry x="110" y="230" width="120" height="40" as="geometry" />
        </mxCell>
      </root>
    </mxGraphModel>
  </diagram>
  <diagram id="-wWy0Yb9nNhsWhYQKYYa" name="Page-6">
    <mxGraphModel dx="1261" dy="636" grid="1" gridSize="10" guides="1" tooltips="1" connect="1" arrows="1" fold="1" page="1" pageScale="1" pageWidth="827" pageHeight="1169" math="0" shadow="0">
      <root>
        <mxCell id="0" />
        <mxCell id="1" parent="0" />
        <mxCell id="RsZSz6aGnayI5T3sGHed-1" value="END" style="rounded=1;whiteSpace=wrap;html=1;arcSize=46;" vertex="1" parent="1">
          <mxGeometry x="220" y="677" width="120" height="60" as="geometry" />
        </mxCell>
        <mxCell id="RsZSz6aGnayI5T3sGHed-2" style="edgeStyle=orthogonalEdgeStyle;rounded=0;orthogonalLoop=1;jettySize=auto;html=1;exitX=0.5;exitY=1;exitDx=0;exitDy=0;entryX=0.5;entryY=0;entryDx=0;entryDy=0;" edge="1" parent="1" source="RsZSz6aGnayI5T3sGHed-6">
          <mxGeometry relative="1" as="geometry">
            <mxPoint x="280" y="672" as="targetPoint" />
          </mxGeometry>
        </mxCell>
        <mxCell id="RsZSz6aGnayI5T3sGHed-3" value="NO" style="edgeLabel;html=1;align=center;verticalAlign=middle;resizable=0;points=[];" vertex="1" connectable="0" parent="RsZSz6aGnayI5T3sGHed-2">
          <mxGeometry x="-0.1721" y="1" relative="1" as="geometry">
            <mxPoint as="offset" />
          </mxGeometry>
        </mxCell>
        <mxCell id="RsZSz6aGnayI5T3sGHed-4" style="edgeStyle=orthogonalEdgeStyle;rounded=0;orthogonalLoop=1;jettySize=auto;html=1;exitX=1;exitY=0.5;exitDx=0;exitDy=0;entryX=0;entryY=0.5;entryDx=0;entryDy=0;" edge="1" parent="1" source="RsZSz6aGnayI5T3sGHed-6">
          <mxGeometry relative="1" as="geometry">
            <mxPoint x="404" y="582" as="targetPoint" />
          </mxGeometry>
        </mxCell>
        <mxCell id="RsZSz6aGnayI5T3sGHed-5" value="YES" style="edgeLabel;html=1;align=center;verticalAlign=middle;resizable=0;points=[];" vertex="1" connectable="0" parent="RsZSz6aGnayI5T3sGHed-4">
          <mxGeometry x="-0.453" relative="1" as="geometry">
            <mxPoint as="offset" />
          </mxGeometry>
        </mxCell>
        <mxCell id="RsZSz6aGnayI5T3sGHed-6" value="for&amp;nbsp;&lt;div&gt;i in range(0,m)&lt;/div&gt;" style="rhombus;whiteSpace=wrap;html=1;" vertex="1" parent="1">
          <mxGeometry x="230" y="532" width="100" height="100" as="geometry" />
        </mxCell>
        <mxCell id="RsZSz6aGnayI5T3sGHed-7" value="" style="edgeStyle=orthogonalEdgeStyle;rounded=0;orthogonalLoop=1;jettySize=auto;html=1;" edge="1" parent="1" source="RsZSz6aGnayI5T3sGHed-8" target="RsZSz6aGnayI5T3sGHed-6">
          <mxGeometry relative="1" as="geometry" />
        </mxCell>
        <mxCell id="RsZSz6aGnayI5T3sGHed-8" value="reflection(li,m)" style="rounded=1;whiteSpace=wrap;html=1;arcSize=46;" vertex="1" parent="1">
          <mxGeometry x="220" y="432" width="120" height="60" as="geometry" />
        </mxCell>
        <mxCell id="RsZSz6aGnayI5T3sGHed-9" style="edgeStyle=orthogonalEdgeStyle;rounded=0;orthogonalLoop=1;jettySize=auto;html=1;" edge="1" parent="1" source="RsZSz6aGnayI5T3sGHed-10">
          <mxGeometry relative="1" as="geometry">
            <mxPoint x="280" y="522" as="targetPoint" />
            <Array as="points">
              <mxPoint x="475" y="522" />
            </Array>
          </mxGeometry>
        </mxCell>
        <mxCell id="RsZSz6aGnayI5T3sGHed-10" value="print(li[m-i-1])" style="shape=parallelogram;perimeter=parallelogramPerimeter;whiteSpace=wrap;html=1;fixedSize=1;" vertex="1" parent="1">
          <mxGeometry x="400" y="552" width="150" height="60" as="geometry" />
        </mxCell>
      </root>
    </mxGraphModel>
  </diagram>
  <diagram id="NyC_QQbkHZzwgtagg--C" name="Page-7">
    <mxGraphModel dx="1261" dy="636" grid="1" gridSize="10" guides="1" tooltips="1" connect="1" arrows="1" fold="1" page="1" pageScale="1" pageWidth="827" pageHeight="1169" math="0" shadow="0">
      <root>
        <mxCell id="0" />
        <mxCell id="1" parent="0" />
        <mxCell id="XpYdyO8HCp7796LqCXHw-1" style="edgeStyle=orthogonalEdgeStyle;rounded=0;orthogonalLoop=1;jettySize=auto;html=1;exitX=0.5;exitY=1;exitDx=0;exitDy=0;entryX=0.5;entryY=0;entryDx=0;entryDy=0;" edge="1" parent="1" target="XpYdyO8HCp7796LqCXHw-7">
          <mxGeometry relative="1" as="geometry">
            <mxPoint x="170" y="230" as="sourcePoint" />
          </mxGeometry>
        </mxCell>
        <mxCell id="XpYdyO8HCp7796LqCXHw-2" value="START" style="rounded=1;whiteSpace=wrap;html=1;arcSize=46;" vertex="1" parent="1">
          <mxGeometry x="110" y="170" width="120" height="60" as="geometry" />
        </mxCell>
        <mxCell id="XpYdyO8HCp7796LqCXHw-3" value="END" style="rounded=1;whiteSpace=wrap;html=1;arcSize=46;" vertex="1" parent="1">
          <mxGeometry x="110" y="820" width="120" height="60" as="geometry" />
        </mxCell>
        <mxCell id="XpYdyO8HCp7796LqCXHw-4" style="edgeStyle=orthogonalEdgeStyle;rounded=0;orthogonalLoop=1;jettySize=auto;html=1;exitX=0.5;exitY=1;exitDx=0;exitDy=0;entryX=0.5;entryY=0;entryDx=0;entryDy=0;" edge="1" parent="1" target="XpYdyO8HCp7796LqCXHw-14">
          <mxGeometry relative="1" as="geometry">
            <mxPoint x="170" y="400" as="sourcePoint" />
          </mxGeometry>
        </mxCell>
        <mxCell id="XpYdyO8HCp7796LqCXHw-6" style="edgeStyle=orthogonalEdgeStyle;rounded=0;orthogonalLoop=1;jettySize=auto;html=1;exitX=0.5;exitY=1;exitDx=0;exitDy=0;entryX=0.5;entryY=0;entryDx=0;entryDy=0;" edge="1" parent="1" source="XpYdyO8HCp7796LqCXHw-7" target="XpYdyO8HCp7796LqCXHw-18">
          <mxGeometry relative="1" as="geometry" />
        </mxCell>
        <mxCell id="XpYdyO8HCp7796LqCXHw-7" value="input int M&lt;div&gt;&lt;br&gt;&lt;/div&gt;" style="shape=parallelogram;perimeter=parallelogramPerimeter;whiteSpace=wrap;html=1;fixedSize=1;" vertex="1" parent="1">
          <mxGeometry x="110" y="270" width="120" height="40" as="geometry" />
        </mxCell>
        <mxCell id="XpYdyO8HCp7796LqCXHw-10" style="edgeStyle=orthogonalEdgeStyle;rounded=0;orthogonalLoop=1;jettySize=auto;html=1;exitX=0.5;exitY=1;exitDx=0;exitDy=0;entryX=0.5;entryY=0;entryDx=0;entryDy=0;" edge="1" parent="1" source="XpYdyO8HCp7796LqCXHw-14">
          <mxGeometry relative="1" as="geometry">
            <mxPoint x="170" y="600" as="targetPoint" />
          </mxGeometry>
        </mxCell>
        <mxCell id="XpYdyO8HCp7796LqCXHw-11" value="NO" style="edgeLabel;html=1;align=center;verticalAlign=middle;resizable=0;points=[];" vertex="1" connectable="0" parent="XpYdyO8HCp7796LqCXHw-10">
          <mxGeometry x="-0.1721" y="1" relative="1" as="geometry">
            <mxPoint as="offset" />
          </mxGeometry>
        </mxCell>
        <mxCell id="XpYdyO8HCp7796LqCXHw-12" style="edgeStyle=orthogonalEdgeStyle;rounded=0;orthogonalLoop=1;jettySize=auto;html=1;exitX=1;exitY=0.5;exitDx=0;exitDy=0;entryX=0;entryY=0.5;entryDx=0;entryDy=0;" edge="1" parent="1" source="XpYdyO8HCp7796LqCXHw-14" target="XpYdyO8HCp7796LqCXHw-16">
          <mxGeometry relative="1" as="geometry" />
        </mxCell>
        <mxCell id="XpYdyO8HCp7796LqCXHw-13" value="YES" style="edgeLabel;html=1;align=center;verticalAlign=middle;resizable=0;points=[];" vertex="1" connectable="0" parent="XpYdyO8HCp7796LqCXHw-12">
          <mxGeometry x="-0.453" relative="1" as="geometry">
            <mxPoint as="offset" />
          </mxGeometry>
        </mxCell>
        <mxCell id="XpYdyO8HCp7796LqCXHw-14" value="for&amp;nbsp;&lt;div&gt;i in range(0,M)&lt;/div&gt;" style="rhombus;whiteSpace=wrap;html=1;" vertex="1" parent="1">
          <mxGeometry x="120" y="460" width="100" height="100" as="geometry" />
        </mxCell>
        <mxCell id="XpYdyO8HCp7796LqCXHw-15" style="edgeStyle=orthogonalEdgeStyle;rounded=0;orthogonalLoop=1;jettySize=auto;html=1;exitX=0.5;exitY=0;exitDx=0;exitDy=0;" edge="1" parent="1" source="XpYdyO8HCp7796LqCXHw-16">
          <mxGeometry relative="1" as="geometry">
            <mxPoint x="170" y="440" as="targetPoint" />
            <Array as="points">
              <mxPoint x="354" y="440" />
              <mxPoint x="201" y="440" />
            </Array>
          </mxGeometry>
        </mxCell>
        <mxCell id="XpYdyO8HCp7796LqCXHw-16" value="li.append(int(input()))" style="rounded=0;whiteSpace=wrap;html=1;" vertex="1" parent="1">
          <mxGeometry x="294" y="490" width="120" height="40" as="geometry" />
        </mxCell>
        <mxCell id="XpYdyO8HCp7796LqCXHw-18" value="initialise empty list li" style="rounded=0;whiteSpace=wrap;html=1;" vertex="1" parent="1">
          <mxGeometry x="110" y="360" width="120" height="40" as="geometry" />
        </mxCell>
        <mxCell id="XpYdyO8HCp7796LqCXHw-23" value="" style="edgeStyle=orthogonalEdgeStyle;rounded=0;orthogonalLoop=1;jettySize=auto;html=1;" edge="1" parent="1" source="XpYdyO8HCp7796LqCXHw-21" target="XpYdyO8HCp7796LqCXHw-22">
          <mxGeometry relative="1" as="geometry" />
        </mxCell>
        <mxCell id="XpYdyO8HCp7796LqCXHw-21" value="turn=turnaround(li)" style="rounded=0;whiteSpace=wrap;html=1;" vertex="1" parent="1">
          <mxGeometry x="110" y="600" width="120" height="40" as="geometry" />
        </mxCell>
        <mxCell id="XpYdyO8HCp7796LqCXHw-25" style="edgeStyle=orthogonalEdgeStyle;rounded=0;orthogonalLoop=1;jettySize=auto;html=1;entryX=0;entryY=0.5;entryDx=0;entryDy=0;" edge="1" parent="1" source="XpYdyO8HCp7796LqCXHw-22" target="XpYdyO8HCp7796LqCXHw-24">
          <mxGeometry relative="1" as="geometry" />
        </mxCell>
        <mxCell id="XpYdyO8HCp7796LqCXHw-26" value="YES" style="edgeLabel;html=1;align=center;verticalAlign=middle;resizable=0;points=[];" vertex="1" connectable="0" parent="XpYdyO8HCp7796LqCXHw-25">
          <mxGeometry x="-0.0974" y="2" relative="1" as="geometry">
            <mxPoint as="offset" />
          </mxGeometry>
        </mxCell>
        <mxCell id="XpYdyO8HCp7796LqCXHw-27" value="" style="edgeStyle=orthogonalEdgeStyle;rounded=0;orthogonalLoop=1;jettySize=auto;html=1;" edge="1" parent="1" source="XpYdyO8HCp7796LqCXHw-22" target="XpYdyO8HCp7796LqCXHw-3">
          <mxGeometry relative="1" as="geometry" />
        </mxCell>
        <mxCell id="XpYdyO8HCp7796LqCXHw-28" value="NO" style="edgeLabel;html=1;align=center;verticalAlign=middle;resizable=0;points=[];" vertex="1" connectable="0" parent="XpYdyO8HCp7796LqCXHw-27">
          <mxGeometry x="-0.2632" y="2" relative="1" as="geometry">
            <mxPoint as="offset" />
          </mxGeometry>
        </mxCell>
        <mxCell id="XpYdyO8HCp7796LqCXHw-22" value="for&amp;nbsp;&lt;div&gt;i in range(0,M)&lt;/div&gt;" style="rhombus;whiteSpace=wrap;html=1;" vertex="1" parent="1">
          <mxGeometry x="120" y="680" width="100" height="100" as="geometry" />
        </mxCell>
        <mxCell id="XpYdyO8HCp7796LqCXHw-30" style="edgeStyle=orthogonalEdgeStyle;rounded=0;orthogonalLoop=1;jettySize=auto;html=1;" edge="1" parent="1" source="XpYdyO8HCp7796LqCXHw-24">
          <mxGeometry relative="1" as="geometry">
            <mxPoint x="170" y="670" as="targetPoint" />
            <Array as="points">
              <mxPoint x="340" y="670" />
            </Array>
          </mxGeometry>
        </mxCell>
        <mxCell id="XpYdyO8HCp7796LqCXHw-24" value="&lt;div&gt;print(turn[i])&lt;/div&gt;" style="shape=parallelogram;perimeter=parallelogramPerimeter;whiteSpace=wrap;html=1;fixedSize=1;" vertex="1" parent="1">
          <mxGeometry x="280" y="710" width="120" height="40" as="geometry" />
        </mxCell>
      </root>
    </mxGraphModel>
  </diagram>
  <diagram id="xsc0mBxh-bBKBVbF19tm" name="Page-8">
    <mxGraphModel dx="1261" dy="636" grid="1" gridSize="10" guides="1" tooltips="1" connect="1" arrows="1" fold="1" page="1" pageScale="1" pageWidth="827" pageHeight="1169" math="0" shadow="0">
      <root>
        <mxCell id="0" />
        <mxCell id="1" parent="0" />
        <mxCell id="eqx2-gaGAnrIKnKLvJq2-1" style="edgeStyle=orthogonalEdgeStyle;rounded=0;orthogonalLoop=1;jettySize=auto;html=1;exitX=0.5;exitY=1;exitDx=0;exitDy=0;entryX=0.5;entryY=0;entryDx=0;entryDy=0;" edge="1" parent="1" target="eqx2-gaGAnrIKnKLvJq2-4">
          <mxGeometry relative="1" as="geometry">
            <mxPoint x="375.5" y="70" as="sourcePoint" />
          </mxGeometry>
        </mxCell>
        <mxCell id="eqx2-gaGAnrIKnKLvJq2-4" value="mid=4&lt;div&gt;length=len(li)&lt;/div&gt;&lt;div&gt;turnlist=[]&lt;/div&gt;" style="rounded=0;whiteSpace=wrap;html=1;" vertex="1" parent="1">
          <mxGeometry x="313" y="180" width="125" height="50" as="geometry" />
        </mxCell>
        <mxCell id="eqx2-gaGAnrIKnKLvJq2-5" style="edgeStyle=orthogonalEdgeStyle;rounded=0;orthogonalLoop=1;jettySize=auto;html=1;exitX=0.5;exitY=1;exitDx=0;exitDy=0;entryX=0.5;entryY=0;entryDx=0;entryDy=0;" edge="1" parent="1" target="eqx2-gaGAnrIKnKLvJq2-9">
          <mxGeometry relative="1" as="geometry">
            <mxPoint x="375.5" y="230" as="sourcePoint" />
          </mxGeometry>
        </mxCell>
        <mxCell id="eqx2-gaGAnrIKnKLvJq2-7" style="edgeStyle=orthogonalEdgeStyle;rounded=0;orthogonalLoop=1;jettySize=auto;html=1;exitX=0.5;exitY=1;exitDx=0;exitDy=0;entryX=0.5;entryY=0;entryDx=0;entryDy=0;" edge="1" parent="1" source="eqx2-gaGAnrIKnKLvJq2-9" target="eqx2-gaGAnrIKnKLvJq2-11">
          <mxGeometry relative="1" as="geometry" />
        </mxCell>
        <mxCell id="62DBGfp7GQFTxvfG-5xe-4" value="" style="edgeStyle=orthogonalEdgeStyle;rounded=0;orthogonalLoop=1;jettySize=auto;html=1;" edge="1" parent="1" source="eqx2-gaGAnrIKnKLvJq2-9" target="62DBGfp7GQFTxvfG-5xe-3">
          <mxGeometry relative="1" as="geometry" />
        </mxCell>
        <mxCell id="62DBGfp7GQFTxvfG-5xe-5" value="YES" style="edgeLabel;html=1;align=center;verticalAlign=middle;resizable=0;points=[];" vertex="1" connectable="0" parent="62DBGfp7GQFTxvfG-5xe-4">
          <mxGeometry x="-0.0266" y="2" relative="1" as="geometry">
            <mxPoint as="offset" />
          </mxGeometry>
        </mxCell>
        <mxCell id="eqx2-gaGAnrIKnKLvJq2-9" value="for i in range(mid,length" style="rhombus;whiteSpace=wrap;html=1;" vertex="1" parent="1">
          <mxGeometry x="320.5" y="270" width="110" height="110" as="geometry" />
        </mxCell>
        <mxCell id="eqx2-gaGAnrIKnKLvJq2-10" style="edgeStyle=orthogonalEdgeStyle;rounded=0;orthogonalLoop=1;jettySize=auto;html=1;exitX=0.5;exitY=1;exitDx=0;exitDy=0;entryX=0.5;entryY=0;entryDx=0;entryDy=0;" edge="1" parent="1" source="eqx2-gaGAnrIKnKLvJq2-11" target="eqx2-gaGAnrIKnKLvJq2-14">
          <mxGeometry relative="1" as="geometry" />
        </mxCell>
        <mxCell id="eqx2-gaGAnrIKnKLvJq2-11" value="i=length%mid" style="rounded=0;whiteSpace=wrap;html=1;" vertex="1" parent="1">
          <mxGeometry x="315.5" y="410" width="120" height="40" as="geometry" />
        </mxCell>
        <mxCell id="eqx2-gaGAnrIKnKLvJq2-12" value="" style="edgeStyle=orthogonalEdgeStyle;rounded=0;orthogonalLoop=1;jettySize=auto;html=1;" edge="1" parent="1" source="eqx2-gaGAnrIKnKLvJq2-14" target="eqx2-gaGAnrIKnKLvJq2-18">
          <mxGeometry relative="1" as="geometry" />
        </mxCell>
        <mxCell id="eqx2-gaGAnrIKnKLvJq2-13" value="YES" style="edgeLabel;html=1;align=center;verticalAlign=middle;resizable=0;points=[];" vertex="1" connectable="0" parent="eqx2-gaGAnrIKnKLvJq2-12">
          <mxGeometry x="0.3494" relative="1" as="geometry">
            <mxPoint y="-7" as="offset" />
          </mxGeometry>
        </mxCell>
        <mxCell id="62DBGfp7GQFTxvfG-5xe-17" value="" style="edgeStyle=orthogonalEdgeStyle;rounded=0;orthogonalLoop=1;jettySize=auto;html=1;" edge="1" parent="1" source="eqx2-gaGAnrIKnKLvJq2-14" target="62DBGfp7GQFTxvfG-5xe-16">
          <mxGeometry relative="1" as="geometry" />
        </mxCell>
        <mxCell id="62DBGfp7GQFTxvfG-5xe-18" value="NO" style="edgeLabel;html=1;align=center;verticalAlign=middle;resizable=0;points=[];" vertex="1" connectable="0" parent="62DBGfp7GQFTxvfG-5xe-17">
          <mxGeometry x="0.0542" y="3" relative="1" as="geometry">
            <mxPoint as="offset" />
          </mxGeometry>
        </mxCell>
        <mxCell id="eqx2-gaGAnrIKnKLvJq2-14" value="while i&amp;lt;length" style="rhombus;whiteSpace=wrap;html=1;" vertex="1" parent="1">
          <mxGeometry x="320.5" y="480" width="110" height="110" as="geometry" />
        </mxCell>
        <mxCell id="eqx2-gaGAnrIKnKLvJq2-15" value="" style="edgeStyle=orthogonalEdgeStyle;rounded=0;orthogonalLoop=1;jettySize=auto;html=1;" edge="1" parent="1" source="eqx2-gaGAnrIKnKLvJq2-18" target="eqx2-gaGAnrIKnKLvJq2-19">
          <mxGeometry relative="1" as="geometry" />
        </mxCell>
        <mxCell id="eqx2-gaGAnrIKnKLvJq2-16" value="YES" style="edgeLabel;html=1;align=center;verticalAlign=middle;resizable=0;points=[];" vertex="1" connectable="0" parent="eqx2-gaGAnrIKnKLvJq2-15">
          <mxGeometry x="-0.191" y="2" relative="1" as="geometry">
            <mxPoint as="offset" />
          </mxGeometry>
        </mxCell>
        <mxCell id="eqx2-gaGAnrIKnKLvJq2-17" value="" style="edgeStyle=orthogonalEdgeStyle;rounded=0;orthogonalLoop=1;jettySize=auto;html=1;" edge="1" parent="1" source="eqx2-gaGAnrIKnKLvJq2-18" target="eqx2-gaGAnrIKnKLvJq2-22">
          <mxGeometry relative="1" as="geometry" />
        </mxCell>
        <mxCell id="62DBGfp7GQFTxvfG-5xe-7" value="NO" style="edgeLabel;html=1;align=center;verticalAlign=middle;resizable=0;points=[];" vertex="1" connectable="0" parent="eqx2-gaGAnrIKnKLvJq2-17">
          <mxGeometry x="-0.2612" y="-1" relative="1" as="geometry">
            <mxPoint y="2" as="offset" />
          </mxGeometry>
        </mxCell>
        <mxCell id="eqx2-gaGAnrIKnKLvJq2-18" value="if&amp;nbsp;&lt;div&gt;len(turnlist)==length&lt;/div&gt;" style="rhombus;whiteSpace=wrap;html=1;" vertex="1" parent="1">
          <mxGeometry x="310.75" y="625" width="129.5" height="110" as="geometry" />
        </mxCell>
        <mxCell id="eqx2-gaGAnrIKnKLvJq2-19" value="break" style="rounded=0;whiteSpace=wrap;html=1;" vertex="1" parent="1">
          <mxGeometry x="490" y="660" width="120" height="40" as="geometry" />
        </mxCell>
        <mxCell id="eqx2-gaGAnrIKnKLvJq2-21" style="edgeStyle=orthogonalEdgeStyle;rounded=0;orthogonalLoop=1;jettySize=auto;html=1;exitX=0.5;exitY=1;exitDx=0;exitDy=0;entryX=0.5;entryY=0;entryDx=0;entryDy=0;" edge="1" parent="1" source="eqx2-gaGAnrIKnKLvJq2-22">
          <mxGeometry relative="1" as="geometry">
            <mxPoint x="375.5" y="840" as="targetPoint" />
          </mxGeometry>
        </mxCell>
        <mxCell id="eqx2-gaGAnrIKnKLvJq2-22" value="turnlist.append(li[i]" style="rounded=0;whiteSpace=wrap;html=1;" vertex="1" parent="1">
          <mxGeometry x="315.5" y="770" width="120" height="40" as="geometry" />
        </mxCell>
        <mxCell id="62DBGfp7GQFTxvfG-5xe-1" value="turnaround(li)" style="rounded=1;whiteSpace=wrap;html=1;arcSize=46;" vertex="1" parent="1">
          <mxGeometry x="315.5" y="70" width="120" height="60" as="geometry" />
        </mxCell>
        <mxCell id="62DBGfp7GQFTxvfG-5xe-6" style="edgeStyle=orthogonalEdgeStyle;rounded=0;orthogonalLoop=1;jettySize=auto;html=1;exitX=0.5;exitY=0;exitDx=0;exitDy=0;" edge="1" parent="1" source="62DBGfp7GQFTxvfG-5xe-3">
          <mxGeometry relative="1" as="geometry">
            <mxPoint x="380" y="260" as="targetPoint" />
            <Array as="points">
              <mxPoint x="540" y="260" />
            </Array>
          </mxGeometry>
        </mxCell>
        <mxCell id="62DBGfp7GQFTxvfG-5xe-3" value="turnlist.append(li[i])" style="rounded=0;whiteSpace=wrap;html=1;" vertex="1" parent="1">
          <mxGeometry x="480" y="305" width="120" height="40" as="geometry" />
        </mxCell>
        <mxCell id="62DBGfp7GQFTxvfG-5xe-13" value="" style="edgeStyle=orthogonalEdgeStyle;rounded=0;orthogonalLoop=1;jettySize=auto;html=1;" edge="1" parent="1" source="62DBGfp7GQFTxvfG-5xe-8" target="62DBGfp7GQFTxvfG-5xe-9">
          <mxGeometry relative="1" as="geometry" />
        </mxCell>
        <mxCell id="62DBGfp7GQFTxvfG-5xe-8" value="i+=1" style="rounded=0;whiteSpace=wrap;html=1;" vertex="1" parent="1">
          <mxGeometry x="315.5" y="840" width="120" height="40" as="geometry" />
        </mxCell>
        <mxCell id="62DBGfp7GQFTxvfG-5xe-11" value="" style="edgeStyle=orthogonalEdgeStyle;rounded=0;orthogonalLoop=1;jettySize=auto;html=1;" edge="1" parent="1" source="62DBGfp7GQFTxvfG-5xe-9" target="62DBGfp7GQFTxvfG-5xe-10">
          <mxGeometry relative="1" as="geometry" />
        </mxCell>
        <mxCell id="62DBGfp7GQFTxvfG-5xe-12" value="YES" style="edgeLabel;html=1;align=center;verticalAlign=middle;resizable=0;points=[];" vertex="1" connectable="0" parent="62DBGfp7GQFTxvfG-5xe-11">
          <mxGeometry x="-0.4685" y="4" relative="1" as="geometry">
            <mxPoint x="11" y="4" as="offset" />
          </mxGeometry>
        </mxCell>
        <mxCell id="62DBGfp7GQFTxvfG-5xe-14" style="edgeStyle=orthogonalEdgeStyle;rounded=0;orthogonalLoop=1;jettySize=auto;html=1;exitX=0.5;exitY=1;exitDx=0;exitDy=0;" edge="1" parent="1" source="62DBGfp7GQFTxvfG-5xe-9">
          <mxGeometry relative="1" as="geometry">
            <mxPoint x="370" y="470" as="targetPoint" />
            <Array as="points">
              <mxPoint x="376" y="1040" />
              <mxPoint x="140" y="1040" />
              <mxPoint x="140" y="470" />
            </Array>
          </mxGeometry>
        </mxCell>
        <mxCell id="62DBGfp7GQFTxvfG-5xe-9" value="if i==mid" style="rhombus;whiteSpace=wrap;html=1;" vertex="1" parent="1">
          <mxGeometry x="325.5" y="920" width="100" height="100" as="geometry" />
        </mxCell>
        <mxCell id="62DBGfp7GQFTxvfG-5xe-10" value="i=0" style="rounded=0;whiteSpace=wrap;html=1;" vertex="1" parent="1">
          <mxGeometry x="480" y="950" width="120" height="40" as="geometry" />
        </mxCell>
        <mxCell id="62DBGfp7GQFTxvfG-5xe-16" value="return turnlist" style="rounded=1;whiteSpace=wrap;html=1;arcSize=46;" vertex="1" parent="1">
          <mxGeometry x="480" y="505" width="120" height="60" as="geometry" />
        </mxCell>
      </root>
    </mxGraphModel>
  </diagram>
  <diagram id="9cQcN_sxGWgxn36PBB-Y" name="Page-9">
    <mxGraphModel dx="1261" dy="636" grid="1" gridSize="10" guides="1" tooltips="1" connect="1" arrows="1" fold="1" page="1" pageScale="1" pageWidth="827" pageHeight="1169" math="0" shadow="0">
      <root>
        <mxCell id="0" />
        <mxCell id="1" parent="0" />
        <mxCell id="AyBBNKlO3g-WwQLPwG6Y-2" value="&lt;div&gt;mlist=[]&lt;/div&gt;&lt;div&gt;mlen=[]&lt;/div&gt;" style="rounded=0;whiteSpace=wrap;html=1;" vertex="1" parent="1">
          <mxGeometry x="313" y="180" width="125" height="50" as="geometry" />
        </mxCell>
        <mxCell id="AyBBNKlO3g-WwQLPwG6Y-3" style="edgeStyle=orthogonalEdgeStyle;rounded=0;orthogonalLoop=1;jettySize=auto;html=1;exitX=0.5;exitY=1;exitDx=0;exitDy=0;entryX=0.5;entryY=0;entryDx=0;entryDy=0;" edge="1" parent="1" target="AyBBNKlO3g-WwQLPwG6Y-7">
          <mxGeometry relative="1" as="geometry">
            <mxPoint x="375.5" y="230" as="sourcePoint" />
          </mxGeometry>
        </mxCell>
        <mxCell id="AyBBNKlO3g-WwQLPwG6Y-4" style="edgeStyle=orthogonalEdgeStyle;rounded=0;orthogonalLoop=1;jettySize=auto;html=1;exitX=0.5;exitY=1;exitDx=0;exitDy=0;entryX=0.5;entryY=0;entryDx=0;entryDy=0;" edge="1" parent="1" source="AyBBNKlO3g-WwQLPwG6Y-7" target="AyBBNKlO3g-WwQLPwG6Y-9">
          <mxGeometry relative="1" as="geometry" />
        </mxCell>
        <mxCell id="AyBBNKlO3g-WwQLPwG6Y-5" value="" style="edgeStyle=orthogonalEdgeStyle;rounded=0;orthogonalLoop=1;jettySize=auto;html=1;" edge="1" parent="1" source="AyBBNKlO3g-WwQLPwG6Y-7" target="IzS5yYrpyZK1lyDl8z0H-4">
          <mxGeometry relative="1" as="geometry">
            <mxPoint x="500" y="340" as="targetPoint" />
          </mxGeometry>
        </mxCell>
        <mxCell id="AyBBNKlO3g-WwQLPwG6Y-6" value="YES" style="edgeLabel;html=1;align=center;verticalAlign=middle;resizable=0;points=[];" vertex="1" connectable="0" parent="AyBBNKlO3g-WwQLPwG6Y-5">
          <mxGeometry x="-0.0266" y="2" relative="1" as="geometry">
            <mxPoint as="offset" />
          </mxGeometry>
        </mxCell>
        <mxCell id="AyBBNKlO3g-WwQLPwG6Y-7" value="for e in range(0,m)" style="rhombus;whiteSpace=wrap;html=1;" vertex="1" parent="1">
          <mxGeometry x="320.5" y="270" width="110" height="110" as="geometry" />
        </mxCell>
        <mxCell id="AyBBNKlO3g-WwQLPwG6Y-8" style="edgeStyle=orthogonalEdgeStyle;rounded=0;orthogonalLoop=1;jettySize=auto;html=1;exitX=0.5;exitY=1;exitDx=0;exitDy=0;entryX=0.5;entryY=0;entryDx=0;entryDy=0;" edge="1" parent="1" source="AyBBNKlO3g-WwQLPwG6Y-9" target="AyBBNKlO3g-WwQLPwG6Y-14">
          <mxGeometry relative="1" as="geometry" />
        </mxCell>
        <mxCell id="AyBBNKlO3g-WwQLPwG6Y-9" value="sortedlist=[]" style="rounded=0;whiteSpace=wrap;html=1;" vertex="1" parent="1">
          <mxGeometry x="315.5" y="410" width="120" height="40" as="geometry" />
        </mxCell>
        <mxCell id="IzS5yYrpyZK1lyDl8z0H-11" value="" style="edgeStyle=orthogonalEdgeStyle;rounded=0;orthogonalLoop=1;jettySize=auto;html=1;" edge="1" parent="1" source="AyBBNKlO3g-WwQLPwG6Y-14" target="AyBBNKlO3g-WwQLPwG6Y-20">
          <mxGeometry relative="1" as="geometry" />
        </mxCell>
        <mxCell id="IzS5yYrpyZK1lyDl8z0H-12" value="YES" style="edgeLabel;html=1;align=center;verticalAlign=middle;resizable=0;points=[];" vertex="1" connectable="0" parent="IzS5yYrpyZK1lyDl8z0H-11">
          <mxGeometry x="-0.3544" y="3" relative="1" as="geometry">
            <mxPoint as="offset" />
          </mxGeometry>
        </mxCell>
        <mxCell id="AyBBNKlO3g-WwQLPwG6Y-14" value="for e in range(0,m)" style="rhombus;whiteSpace=wrap;html=1;" vertex="1" parent="1">
          <mxGeometry x="320.5" y="480" width="110" height="110" as="geometry" />
        </mxCell>
        <mxCell id="IzS5yYrpyZK1lyDl8z0H-16" value="" style="edgeStyle=orthogonalEdgeStyle;rounded=0;orthogonalLoop=1;jettySize=auto;html=1;" edge="1" parent="1" source="AyBBNKlO3g-WwQLPwG6Y-20" target="IzS5yYrpyZK1lyDl8z0H-13">
          <mxGeometry relative="1" as="geometry" />
        </mxCell>
        <mxCell id="AyBBNKlO3g-WwQLPwG6Y-20" value="sortedlist=arrange(mlist[e],mlen[e]" style="rounded=0;whiteSpace=wrap;html=1;" vertex="1" parent="1">
          <mxGeometry x="279.63" y="630" width="191.75" height="60" as="geometry" />
        </mxCell>
        <mxCell id="IzS5yYrpyZK1lyDl8z0H-2" value="" style="edgeStyle=orthogonalEdgeStyle;rounded=0;orthogonalLoop=1;jettySize=auto;html=1;" edge="1" parent="1" source="AyBBNKlO3g-WwQLPwG6Y-23" target="IzS5yYrpyZK1lyDl8z0H-1">
          <mxGeometry relative="1" as="geometry" />
        </mxCell>
        <mxCell id="AyBBNKlO3g-WwQLPwG6Y-23" value="START" style="rounded=1;whiteSpace=wrap;html=1;arcSize=46;" vertex="1" parent="1">
          <mxGeometry x="315.5" y="20" width="120" height="60" as="geometry" />
        </mxCell>
        <mxCell id="IzS5yYrpyZK1lyDl8z0H-17" value="" style="edgeStyle=orthogonalEdgeStyle;rounded=0;orthogonalLoop=1;jettySize=auto;html=1;" edge="1" parent="1" source="AyBBNKlO3g-WwQLPwG6Y-31" target="IzS5yYrpyZK1lyDl8z0H-15">
          <mxGeometry relative="1" as="geometry" />
        </mxCell>
        <mxCell id="IzS5yYrpyZK1lyDl8z0H-18" value="YES" style="edgeLabel;html=1;align=center;verticalAlign=middle;resizable=0;points=[];" vertex="1" connectable="0" parent="IzS5yYrpyZK1lyDl8z0H-17">
          <mxGeometry x="-0.4536" y="2" relative="1" as="geometry">
            <mxPoint as="offset" />
          </mxGeometry>
        </mxCell>
        <mxCell id="IzS5yYrpyZK1lyDl8z0H-22" value="" style="edgeStyle=orthogonalEdgeStyle;rounded=0;orthogonalLoop=1;jettySize=auto;html=1;" edge="1" parent="1" source="AyBBNKlO3g-WwQLPwG6Y-31" target="IzS5yYrpyZK1lyDl8z0H-21">
          <mxGeometry relative="1" as="geometry" />
        </mxCell>
        <mxCell id="IzS5yYrpyZK1lyDl8z0H-23" value="NO" style="edgeLabel;html=1;align=center;verticalAlign=middle;resizable=0;points=[];" vertex="1" connectable="0" parent="IzS5yYrpyZK1lyDl8z0H-22">
          <mxGeometry x="-0.3537" y="-4" relative="1" as="geometry">
            <mxPoint as="offset" />
          </mxGeometry>
        </mxCell>
        <mxCell id="AyBBNKlO3g-WwQLPwG6Y-31" value="if f==mlen[e]-1" style="rhombus;whiteSpace=wrap;html=1;" vertex="1" parent="1">
          <mxGeometry x="325.51" y="860" width="100" height="100" as="geometry" />
        </mxCell>
        <mxCell id="IzS5yYrpyZK1lyDl8z0H-3" value="" style="edgeStyle=orthogonalEdgeStyle;rounded=0;orthogonalLoop=1;jettySize=auto;html=1;" edge="1" parent="1" source="IzS5yYrpyZK1lyDl8z0H-1" target="AyBBNKlO3g-WwQLPwG6Y-2">
          <mxGeometry relative="1" as="geometry" />
        </mxCell>
        <mxCell id="IzS5yYrpyZK1lyDl8z0H-1" value="input int m&lt;div&gt;&lt;br&gt;&lt;/div&gt;" style="shape=parallelogram;perimeter=parallelogramPerimeter;whiteSpace=wrap;html=1;fixedSize=1;" vertex="1" parent="1">
          <mxGeometry x="315.5" y="110" width="120" height="40" as="geometry" />
        </mxCell>
        <mxCell id="IzS5yYrpyZK1lyDl8z0H-8" value="" style="edgeStyle=orthogonalEdgeStyle;rounded=0;orthogonalLoop=1;jettySize=auto;html=1;" edge="1" parent="1" source="IzS5yYrpyZK1lyDl8z0H-4" target="IzS5yYrpyZK1lyDl8z0H-5">
          <mxGeometry relative="1" as="geometry" />
        </mxCell>
        <mxCell id="IzS5yYrpyZK1lyDl8z0H-4" value="input int M&lt;div&gt;&lt;br&gt;&lt;/div&gt;" style="shape=parallelogram;perimeter=parallelogramPerimeter;whiteSpace=wrap;html=1;fixedSize=1;" vertex="1" parent="1">
          <mxGeometry x="490" y="370" width="120" height="40" as="geometry" />
        </mxCell>
        <mxCell id="IzS5yYrpyZK1lyDl8z0H-9" value="" style="edgeStyle=orthogonalEdgeStyle;rounded=0;orthogonalLoop=1;jettySize=auto;html=1;" edge="1" parent="1" source="IzS5yYrpyZK1lyDl8z0H-5" target="IzS5yYrpyZK1lyDl8z0H-7">
          <mxGeometry relative="1" as="geometry" />
        </mxCell>
        <mxCell id="IzS5yYrpyZK1lyDl8z0H-5" value="mlen.append(M)&lt;div&gt;li=[]&lt;/div&gt;" style="rounded=0;whiteSpace=wrap;html=1;" vertex="1" parent="1">
          <mxGeometry x="640" y="370" width="120" height="40" as="geometry" />
        </mxCell>
        <mxCell id="IzS5yYrpyZK1lyDl8z0H-6" value="&lt;div&gt;input string x&lt;/div&gt;" style="shape=parallelogram;perimeter=parallelogramPerimeter;whiteSpace=wrap;html=1;fixedSize=1;" vertex="1" parent="1">
          <mxGeometry x="640" y="305" width="120" height="40" as="geometry" />
        </mxCell>
        <mxCell id="IzS5yYrpyZK1lyDl8z0H-10" style="edgeStyle=orthogonalEdgeStyle;rounded=0;orthogonalLoop=1;jettySize=auto;html=1;" edge="1" parent="1" source="IzS5yYrpyZK1lyDl8z0H-7">
          <mxGeometry relative="1" as="geometry">
            <mxPoint x="380" y="260" as="targetPoint" />
          </mxGeometry>
        </mxCell>
        <mxCell id="IzS5yYrpyZK1lyDl8z0H-7" value="mlist.append(int_input12(li,x))" style="rounded=0;whiteSpace=wrap;html=1;" vertex="1" parent="1">
          <mxGeometry x="620" y="240" width="160" height="40" as="geometry" />
        </mxCell>
        <mxCell id="IzS5yYrpyZK1lyDl8z0H-19" value="" style="edgeStyle=orthogonalEdgeStyle;rounded=0;orthogonalLoop=1;jettySize=auto;html=1;" edge="1" parent="1" source="IzS5yYrpyZK1lyDl8z0H-13" target="AyBBNKlO3g-WwQLPwG6Y-31">
          <mxGeometry relative="1" as="geometry" />
        </mxCell>
        <mxCell id="IzS5yYrpyZK1lyDl8z0H-20" value="YES" style="edgeLabel;html=1;align=center;verticalAlign=middle;resizable=0;points=[];" vertex="1" connectable="0" parent="IzS5yYrpyZK1lyDl8z0H-19">
          <mxGeometry x="0.5177" y="1" relative="1" as="geometry">
            <mxPoint as="offset" />
          </mxGeometry>
        </mxCell>
        <mxCell id="IzS5yYrpyZK1lyDl8z0H-28" style="edgeStyle=orthogonalEdgeStyle;rounded=0;orthogonalLoop=1;jettySize=auto;html=1;" edge="1" parent="1" source="IzS5yYrpyZK1lyDl8z0H-13">
          <mxGeometry relative="1" as="geometry">
            <mxPoint x="370" y="470" as="targetPoint" />
            <Array as="points">
              <mxPoint x="150" y="775" />
              <mxPoint x="150" y="470" />
            </Array>
          </mxGeometry>
        </mxCell>
        <mxCell id="IzS5yYrpyZK1lyDl8z0H-29" value="NO" style="edgeLabel;html=1;align=center;verticalAlign=middle;resizable=0;points=[];" vertex="1" connectable="0" parent="IzS5yYrpyZK1lyDl8z0H-28">
          <mxGeometry x="-0.8795" y="2" relative="1" as="geometry">
            <mxPoint as="offset" />
          </mxGeometry>
        </mxCell>
        <mxCell id="IzS5yYrpyZK1lyDl8z0H-13" value="for f in range(0,mlen[e])" style="rhombus;whiteSpace=wrap;html=1;" vertex="1" parent="1">
          <mxGeometry x="320.5" y="720" width="110" height="110" as="geometry" />
        </mxCell>
        <mxCell id="IzS5yYrpyZK1lyDl8z0H-25" style="edgeStyle=orthogonalEdgeStyle;rounded=0;orthogonalLoop=1;jettySize=auto;html=1;exitX=0.5;exitY=0;exitDx=0;exitDy=0;" edge="1" parent="1">
          <mxGeometry relative="1" as="geometry">
            <mxPoint x="380" y="710" as="targetPoint" />
            <mxPoint x="560" y="900" as="sourcePoint" />
            <Array as="points">
              <mxPoint x="560" y="710" />
            </Array>
          </mxGeometry>
        </mxCell>
        <mxCell id="IzS5yYrpyZK1lyDl8z0H-15" value="&lt;div&gt;print(sortedlist[f])&lt;/div&gt;" style="shape=parallelogram;perimeter=parallelogramPerimeter;whiteSpace=wrap;html=1;fixedSize=1;" vertex="1" parent="1">
          <mxGeometry x="500" y="890" width="120" height="40" as="geometry" />
        </mxCell>
        <mxCell id="IzS5yYrpyZK1lyDl8z0H-26" style="edgeStyle=orthogonalEdgeStyle;rounded=0;orthogonalLoop=1;jettySize=auto;html=1;" edge="1" parent="1" source="IzS5yYrpyZK1lyDl8z0H-21">
          <mxGeometry relative="1" as="geometry">
            <mxPoint x="560" y="710" as="targetPoint" />
            <Array as="points">
              <mxPoint x="710" y="1020" />
              <mxPoint x="710" y="710" />
            </Array>
          </mxGeometry>
        </mxCell>
        <mxCell id="IzS5yYrpyZK1lyDl8z0H-21" value="&lt;div&gt;print(sortedlist[f], end=&#39; &#39;)&lt;/div&gt;" style="shape=parallelogram;perimeter=parallelogramPerimeter;whiteSpace=wrap;html=1;fixedSize=1;" vertex="1" parent="1">
          <mxGeometry x="298.26" y="1000" width="154.49" height="40" as="geometry" />
        </mxCell>
      </root>
    </mxGraphModel>
  </diagram>
  <diagram id="cVgAmaQZwblSGCsiNeZ6" name="Page-10">
    <mxGraphModel dx="1801" dy="909" grid="1" gridSize="10" guides="1" tooltips="1" connect="1" arrows="1" fold="1" page="1" pageScale="1" pageWidth="827" pageHeight="1169" math="0" shadow="0">
      <root>
        <mxCell id="0" />
        <mxCell id="1" parent="0" />
        <mxCell id="oEOb0xWfk-jxSS1Bx0yV-3" style="edgeStyle=orthogonalEdgeStyle;rounded=0;orthogonalLoop=1;jettySize=auto;html=1;exitX=0.5;exitY=1;exitDx=0;exitDy=0;entryX=0.5;entryY=0;entryDx=0;entryDy=0;" edge="1" parent="1" target="oEOb0xWfk-jxSS1Bx0yV-6">
          <mxGeometry relative="1" as="geometry">
            <mxPoint x="375.5" y="160" as="sourcePoint" />
          </mxGeometry>
        </mxCell>
        <mxCell id="oEOb0xWfk-jxSS1Bx0yV-5" style="edgeStyle=orthogonalEdgeStyle;rounded=0;orthogonalLoop=1;jettySize=auto;html=1;exitX=0.5;exitY=1;exitDx=0;exitDy=0;entryX=0.5;entryY=0;entryDx=0;entryDy=0;" edge="1" parent="1" source="oEOb0xWfk-jxSS1Bx0yV-6" target="oEOb0xWfk-jxSS1Bx0yV-9">
          <mxGeometry relative="1" as="geometry" />
        </mxCell>
        <mxCell id="oEOb0xWfk-jxSS1Bx0yV-6" value="y=len(x)&lt;div&gt;i=0&lt;/div&gt;" style="rounded=0;whiteSpace=wrap;html=1;" vertex="1" parent="1">
          <mxGeometry x="315.5" y="190" width="120" height="40" as="geometry" />
        </mxCell>
        <mxCell id="oEOb0xWfk-jxSS1Bx0yV-7" style="edgeStyle=orthogonalEdgeStyle;rounded=0;orthogonalLoop=1;jettySize=auto;html=1;exitX=0.5;exitY=1;exitDx=0;exitDy=0;entryX=0.5;entryY=0;entryDx=0;entryDy=0;" edge="1" parent="1" source="oEOb0xWfk-jxSS1Bx0yV-9" target="oEOb0xWfk-jxSS1Bx0yV-11">
          <mxGeometry relative="1" as="geometry" />
        </mxCell>
        <mxCell id="oEOb0xWfk-jxSS1Bx0yV-8" value="YES" style="edgeLabel;html=1;align=center;verticalAlign=middle;resizable=0;points=[];" vertex="1" connectable="0" parent="oEOb0xWfk-jxSS1Bx0yV-7">
          <mxGeometry x="-0.2582" relative="1" as="geometry">
            <mxPoint as="offset" />
          </mxGeometry>
        </mxCell>
        <mxCell id="WakGnd-ieod-uRAJdbxM-3" value="" style="edgeStyle=orthogonalEdgeStyle;rounded=0;orthogonalLoop=1;jettySize=auto;html=1;" edge="1" parent="1" source="oEOb0xWfk-jxSS1Bx0yV-9" target="WakGnd-ieod-uRAJdbxM-2">
          <mxGeometry relative="1" as="geometry" />
        </mxCell>
        <mxCell id="WakGnd-ieod-uRAJdbxM-4" value="NO" style="edgeLabel;html=1;align=center;verticalAlign=middle;resizable=0;points=[];" vertex="1" connectable="0" parent="WakGnd-ieod-uRAJdbxM-3">
          <mxGeometry x="-0.1869" y="2" relative="1" as="geometry">
            <mxPoint as="offset" />
          </mxGeometry>
        </mxCell>
        <mxCell id="oEOb0xWfk-jxSS1Bx0yV-9" value="while i&amp;lt;y" style="rhombus;whiteSpace=wrap;html=1;" vertex="1" parent="1">
          <mxGeometry x="325.5" y="270" width="100" height="100" as="geometry" />
        </mxCell>
        <mxCell id="oEOb0xWfk-jxSS1Bx0yV-10" style="edgeStyle=orthogonalEdgeStyle;rounded=0;orthogonalLoop=1;jettySize=auto;html=1;exitX=0.5;exitY=1;exitDx=0;exitDy=0;entryX=0.5;entryY=0;entryDx=0;entryDy=0;" edge="1" parent="1" source="oEOb0xWfk-jxSS1Bx0yV-11" target="oEOb0xWfk-jxSS1Bx0yV-14">
          <mxGeometry relative="1" as="geometry" />
        </mxCell>
        <mxCell id="oEOb0xWfk-jxSS1Bx0yV-11" value="empty string s&lt;div&gt;empty string sign&lt;/div&gt;" style="rounded=0;whiteSpace=wrap;html=1;" vertex="1" parent="1">
          <mxGeometry x="315.5" y="410" width="120" height="40" as="geometry" />
        </mxCell>
        <mxCell id="oEOb0xWfk-jxSS1Bx0yV-12" value="" style="edgeStyle=orthogonalEdgeStyle;rounded=0;orthogonalLoop=1;jettySize=auto;html=1;" edge="1" parent="1" source="oEOb0xWfk-jxSS1Bx0yV-14">
          <mxGeometry relative="1" as="geometry">
            <mxPoint x="375.5" y="630" as="targetPoint" />
          </mxGeometry>
        </mxCell>
        <mxCell id="oEOb0xWfk-jxSS1Bx0yV-13" value="YES" style="edgeLabel;html=1;align=center;verticalAlign=middle;resizable=0;points=[];" vertex="1" connectable="0" parent="oEOb0xWfk-jxSS1Bx0yV-12">
          <mxGeometry x="0.3494" relative="1" as="geometry">
            <mxPoint y="-7" as="offset" />
          </mxGeometry>
        </mxCell>
        <mxCell id="oEOb0xWfk-jxSS1Bx0yV-14" value="while i&amp;lt;y&lt;div&gt;and x[i] !=&#39; &#39;&lt;/div&gt;" style="rhombus;whiteSpace=wrap;html=1;" vertex="1" parent="1">
          <mxGeometry x="320.5" y="480" width="110" height="110" as="geometry" />
        </mxCell>
        <mxCell id="oEOb0xWfk-jxSS1Bx0yV-20" style="edgeStyle=orthogonalEdgeStyle;rounded=0;orthogonalLoop=1;jettySize=auto;html=1;entryX=0.5;entryY=1;entryDx=0;entryDy=0;" edge="1" parent="1" source="oEOb0xWfk-jxSS1Bx0yV-22" target="oEOb0xWfk-jxSS1Bx0yV-24">
          <mxGeometry relative="1" as="geometry" />
        </mxCell>
        <mxCell id="oEOb0xWfk-jxSS1Bx0yV-21" style="edgeStyle=orthogonalEdgeStyle;rounded=0;orthogonalLoop=1;jettySize=auto;html=1;exitX=0.5;exitY=1;exitDx=0;exitDy=0;entryX=0.5;entryY=0;entryDx=0;entryDy=0;" edge="1" parent="1" source="oEOb0xWfk-jxSS1Bx0yV-22" target="oEOb0xWfk-jxSS1Bx0yV-29">
          <mxGeometry relative="1" as="geometry" />
        </mxCell>
        <mxCell id="oEOb0xWfk-jxSS1Bx0yV-22" value="s=s+x[i]" style="rounded=0;whiteSpace=wrap;html=1;" vertex="1" parent="1">
          <mxGeometry x="320.5" y="630" width="120" height="40" as="geometry" />
        </mxCell>
        <mxCell id="oEOb0xWfk-jxSS1Bx0yV-23" style="edgeStyle=orthogonalEdgeStyle;rounded=0;orthogonalLoop=1;jettySize=auto;html=1;" edge="1" parent="1" source="oEOb0xWfk-jxSS1Bx0yV-24">
          <mxGeometry relative="1" as="geometry">
            <mxPoint x="370" y="470" as="targetPoint" />
            <Array as="points">
              <mxPoint x="200" y="470" />
            </Array>
          </mxGeometry>
        </mxCell>
        <mxCell id="oEOb0xWfk-jxSS1Bx0yV-24" value="i+=1" style="rounded=0;whiteSpace=wrap;html=1;" vertex="1" parent="1">
          <mxGeometry x="140" y="550" width="120" height="40" as="geometry" />
        </mxCell>
        <mxCell id="oEOb0xWfk-jxSS1Bx0yV-25" style="edgeStyle=orthogonalEdgeStyle;rounded=0;orthogonalLoop=1;jettySize=auto;html=1;exitX=1;exitY=0.5;exitDx=0;exitDy=0;entryX=0;entryY=0.5;entryDx=0;entryDy=0;" edge="1" parent="1" source="oEOb0xWfk-jxSS1Bx0yV-29">
          <mxGeometry relative="1" as="geometry">
            <mxPoint x="490" y="800" as="targetPoint" />
          </mxGeometry>
        </mxCell>
        <mxCell id="oEOb0xWfk-jxSS1Bx0yV-26" value="YES" style="edgeLabel;html=1;align=center;verticalAlign=middle;resizable=0;points=[];" vertex="1" connectable="0" parent="oEOb0xWfk-jxSS1Bx0yV-25">
          <mxGeometry x="0.1776" y="2" relative="1" as="geometry">
            <mxPoint x="-7" y="2" as="offset" />
          </mxGeometry>
        </mxCell>
        <mxCell id="oEOb0xWfk-jxSS1Bx0yV-27" value="" style="edgeStyle=orthogonalEdgeStyle;rounded=0;orthogonalLoop=1;jettySize=auto;html=1;" edge="1" parent="1" source="oEOb0xWfk-jxSS1Bx0yV-29" target="oEOb0xWfk-jxSS1Bx0yV-38">
          <mxGeometry relative="1" as="geometry" />
        </mxCell>
        <mxCell id="oEOb0xWfk-jxSS1Bx0yV-28" value="NO" style="edgeLabel;html=1;align=center;verticalAlign=middle;resizable=0;points=[];" vertex="1" connectable="0" parent="oEOb0xWfk-jxSS1Bx0yV-27">
          <mxGeometry x="-0.18" y="1" relative="1" as="geometry">
            <mxPoint as="offset" />
          </mxGeometry>
        </mxCell>
        <mxCell id="oEOb0xWfk-jxSS1Bx0yV-29" value="if s is not empty" style="rhombus;whiteSpace=wrap;html=1;" vertex="1" parent="1">
          <mxGeometry x="330.5" y="750" width="100" height="100" as="geometry" />
        </mxCell>
        <mxCell id="oEOb0xWfk-jxSS1Bx0yV-34" value="li.append(int(s))" style="rounded=0;whiteSpace=wrap;html=1;" vertex="1" parent="1">
          <mxGeometry x="490" y="780" width="120" height="40" as="geometry" />
        </mxCell>
        <mxCell id="oEOb0xWfk-jxSS1Bx0yV-37" style="edgeStyle=orthogonalEdgeStyle;rounded=0;orthogonalLoop=1;jettySize=auto;html=1;exitX=0;exitY=0.5;exitDx=0;exitDy=0;" edge="1" parent="1" source="oEOb0xWfk-jxSS1Bx0yV-38">
          <mxGeometry relative="1" as="geometry">
            <mxPoint x="380" y="250" as="targetPoint" />
            <Array as="points">
              <mxPoint x="80" y="940" />
              <mxPoint x="80" y="250" />
              <mxPoint x="371" y="250" />
            </Array>
          </mxGeometry>
        </mxCell>
        <mxCell id="oEOb0xWfk-jxSS1Bx0yV-38" value="i+=1" style="rounded=0;whiteSpace=wrap;html=1;" vertex="1" parent="1">
          <mxGeometry x="320.5" y="920" width="120" height="40" as="geometry" />
        </mxCell>
        <mxCell id="WakGnd-ieod-uRAJdbxM-1" value="int_input12(li,x)" style="rounded=1;whiteSpace=wrap;html=1;arcSize=46;" vertex="1" parent="1">
          <mxGeometry x="315.5" y="100" width="120" height="60" as="geometry" />
        </mxCell>
        <mxCell id="WakGnd-ieod-uRAJdbxM-2" value="return li" style="rounded=1;whiteSpace=wrap;html=1;arcSize=46;" vertex="1" parent="1">
          <mxGeometry x="470" y="290" width="120" height="60" as="geometry" />
        </mxCell>
      </root>
    </mxGraphModel>
  </diagram>
  <diagram id="Imxf8Vd9nKt0m1TzgrhL" name="Page-11">
    <mxGraphModel dx="1484" dy="748" grid="1" gridSize="10" guides="1" tooltips="1" connect="1" arrows="1" fold="1" page="1" pageScale="1" pageWidth="827" pageHeight="1169" math="0" shadow="0">
      <root>
        <mxCell id="0" />
        <mxCell id="1" parent="0" />
        <mxCell id="1OSAMoRk1V6HN1oISEU6-1" style="edgeStyle=orthogonalEdgeStyle;rounded=0;orthogonalLoop=1;jettySize=auto;html=1;exitX=0.5;exitY=1;exitDx=0;exitDy=0;entryX=0.5;entryY=0;entryDx=0;entryDy=0;" edge="1" parent="1" target="1OSAMoRk1V6HN1oISEU6-3">
          <mxGeometry relative="1" as="geometry">
            <mxPoint x="375.5" y="160" as="sourcePoint" />
          </mxGeometry>
        </mxCell>
        <mxCell id="1OSAMoRk1V6HN1oISEU6-2" style="edgeStyle=orthogonalEdgeStyle;rounded=0;orthogonalLoop=1;jettySize=auto;html=1;exitX=0.5;exitY=1;exitDx=0;exitDy=0;entryX=0.5;entryY=0;entryDx=0;entryDy=0;" edge="1" parent="1" source="1OSAMoRk1V6HN1oISEU6-3" target="1OSAMoRk1V6HN1oISEU6-8">
          <mxGeometry relative="1" as="geometry" />
        </mxCell>
        <mxCell id="1OSAMoRk1V6HN1oISEU6-3" value="alist=mlist[e].copy()&lt;div&gt;e=0&lt;/div&gt;&lt;div&gt;g=0&lt;/div&gt;" style="rounded=0;whiteSpace=wrap;html=1;" vertex="1" parent="1">
          <mxGeometry x="315.5" y="190" width="120" height="40" as="geometry" />
        </mxCell>
        <mxCell id="1OSAMoRk1V6HN1oISEU6-4" style="edgeStyle=orthogonalEdgeStyle;rounded=0;orthogonalLoop=1;jettySize=auto;html=1;exitX=0.5;exitY=1;exitDx=0;exitDy=0;entryX=0.5;entryY=0;entryDx=0;entryDy=0;" edge="1" parent="1" source="1OSAMoRk1V6HN1oISEU6-8" target="1OSAMoRk1V6HN1oISEU6-10">
          <mxGeometry relative="1" as="geometry" />
        </mxCell>
        <mxCell id="1OSAMoRk1V6HN1oISEU6-5" value="YES" style="edgeLabel;html=1;align=center;verticalAlign=middle;resizable=0;points=[];" vertex="1" connectable="0" parent="1OSAMoRk1V6HN1oISEU6-4">
          <mxGeometry x="-0.2582" relative="1" as="geometry">
            <mxPoint as="offset" />
          </mxGeometry>
        </mxCell>
        <mxCell id="1OSAMoRk1V6HN1oISEU6-6" value="" style="edgeStyle=orthogonalEdgeStyle;rounded=0;orthogonalLoop=1;jettySize=auto;html=1;" edge="1" parent="1" source="1OSAMoRk1V6HN1oISEU6-8" target="1OSAMoRk1V6HN1oISEU6-28">
          <mxGeometry relative="1" as="geometry" />
        </mxCell>
        <mxCell id="1OSAMoRk1V6HN1oISEU6-7" value="NO" style="edgeLabel;html=1;align=center;verticalAlign=middle;resizable=0;points=[];" vertex="1" connectable="0" parent="1OSAMoRk1V6HN1oISEU6-6">
          <mxGeometry x="-0.1869" y="2" relative="1" as="geometry">
            <mxPoint as="offset" />
          </mxGeometry>
        </mxCell>
        <mxCell id="1OSAMoRk1V6HN1oISEU6-8" value="while e&amp;lt;mlen[e]" style="rhombus;whiteSpace=wrap;html=1;" vertex="1" parent="1">
          <mxGeometry x="325.5" y="270" width="100" height="100" as="geometry" />
        </mxCell>
        <mxCell id="1OSAMoRk1V6HN1oISEU6-9" style="edgeStyle=orthogonalEdgeStyle;rounded=0;orthogonalLoop=1;jettySize=auto;html=1;exitX=0.5;exitY=1;exitDx=0;exitDy=0;entryX=0.5;entryY=0;entryDx=0;entryDy=0;" edge="1" parent="1" source="1OSAMoRk1V6HN1oISEU6-10" target="1OSAMoRk1V6HN1oISEU6-13">
          <mxGeometry relative="1" as="geometry" />
        </mxCell>
        <mxCell id="1OSAMoRk1V6HN1oISEU6-10" value="f=e+1" style="rounded=0;whiteSpace=wrap;html=1;" vertex="1" parent="1">
          <mxGeometry x="315.5" y="410" width="120" height="40" as="geometry" />
        </mxCell>
        <mxCell id="1OSAMoRk1V6HN1oISEU6-11" value="" style="edgeStyle=orthogonalEdgeStyle;rounded=0;orthogonalLoop=1;jettySize=auto;html=1;entryX=0.5;entryY=0;entryDx=0;entryDy=0;" edge="1" parent="1" source="1OSAMoRk1V6HN1oISEU6-13" target="1OSAMoRk1V6HN1oISEU6-23">
          <mxGeometry relative="1" as="geometry">
            <mxPoint x="375.5" y="630" as="targetPoint" />
          </mxGeometry>
        </mxCell>
        <mxCell id="1OSAMoRk1V6HN1oISEU6-12" value="YES" style="edgeLabel;html=1;align=center;verticalAlign=middle;resizable=0;points=[];" vertex="1" connectable="0" parent="1OSAMoRk1V6HN1oISEU6-11">
          <mxGeometry x="0.3494" relative="1" as="geometry">
            <mxPoint y="-7" as="offset" />
          </mxGeometry>
        </mxCell>
        <mxCell id="utsU53dL0kn8o_gR5OYD-4" style="edgeStyle=orthogonalEdgeStyle;rounded=0;orthogonalLoop=1;jettySize=auto;html=1;" edge="1" parent="1" source="1OSAMoRk1V6HN1oISEU6-13">
          <mxGeometry relative="1" as="geometry">
            <mxPoint x="370" y="250" as="targetPoint" />
            <Array as="points">
              <mxPoint x="140" y="535" />
              <mxPoint x="140" y="250" />
            </Array>
          </mxGeometry>
        </mxCell>
        <mxCell id="utsU53dL0kn8o_gR5OYD-5" value="NO" style="edgeLabel;html=1;align=center;verticalAlign=middle;resizable=0;points=[];" vertex="1" connectable="0" parent="utsU53dL0kn8o_gR5OYD-4">
          <mxGeometry x="-0.8987" y="2" relative="1" as="geometry">
            <mxPoint as="offset" />
          </mxGeometry>
        </mxCell>
        <mxCell id="1OSAMoRk1V6HN1oISEU6-13" value="while f&amp;lt;mlen[e]" style="rhombus;whiteSpace=wrap;html=1;" vertex="1" parent="1">
          <mxGeometry x="320.5" y="480" width="110" height="110" as="geometry" />
        </mxCell>
        <mxCell id="1OSAMoRk1V6HN1oISEU6-17" style="edgeStyle=orthogonalEdgeStyle;rounded=0;orthogonalLoop=1;jettySize=auto;html=1;" edge="1" parent="1" source="1OSAMoRk1V6HN1oISEU6-18">
          <mxGeometry relative="1" as="geometry">
            <mxPoint x="370" y="470" as="targetPoint" />
            <Array as="points">
              <mxPoint x="200" y="470" />
            </Array>
          </mxGeometry>
        </mxCell>
        <mxCell id="1OSAMoRk1V6HN1oISEU6-18" value="f+=1" style="rounded=0;whiteSpace=wrap;html=1;" vertex="1" parent="1">
          <mxGeometry x="140" y="640" width="120" height="40" as="geometry" />
        </mxCell>
        <mxCell id="utsU53dL0kn8o_gR5OYD-1" value="" style="edgeStyle=orthogonalEdgeStyle;rounded=0;orthogonalLoop=1;jettySize=auto;html=1;" edge="1" parent="1" source="1OSAMoRk1V6HN1oISEU6-23" target="1OSAMoRk1V6HN1oISEU6-24">
          <mxGeometry relative="1" as="geometry" />
        </mxCell>
        <mxCell id="utsU53dL0kn8o_gR5OYD-2" value="YES" style="edgeLabel;html=1;align=center;verticalAlign=middle;resizable=0;points=[];" vertex="1" connectable="0" parent="utsU53dL0kn8o_gR5OYD-1">
          <mxGeometry x="-0.2459" y="-1" relative="1" as="geometry">
            <mxPoint as="offset" />
          </mxGeometry>
        </mxCell>
        <mxCell id="utsU53dL0kn8o_gR5OYD-3" style="edgeStyle=orthogonalEdgeStyle;rounded=0;orthogonalLoop=1;jettySize=auto;html=1;exitX=0.5;exitY=1;exitDx=0;exitDy=0;entryX=0.5;entryY=1;entryDx=0;entryDy=0;" edge="1" parent="1" source="1OSAMoRk1V6HN1oISEU6-23" target="1OSAMoRk1V6HN1oISEU6-18">
          <mxGeometry relative="1" as="geometry" />
        </mxCell>
        <mxCell id="1OSAMoRk1V6HN1oISEU6-23" value="if alist[e]&amp;gt;alist[f]" style="rhombus;whiteSpace=wrap;html=1;" vertex="1" parent="1">
          <mxGeometry x="325.5" y="660" width="100" height="100" as="geometry" />
        </mxCell>
        <mxCell id="1OSAMoRk1V6HN1oISEU6-24" value="g=alist[e]&lt;div&gt;alist[e]=alist[f]&lt;/div&gt;&lt;div&gt;alist[f]=g&lt;/div&gt;" style="rounded=0;whiteSpace=wrap;html=1;" vertex="1" parent="1">
          <mxGeometry x="500" y="690" width="120" height="40" as="geometry" />
        </mxCell>
        <mxCell id="1OSAMoRk1V6HN1oISEU6-27" value="arrange(mlist[e],mlen[e])" style="rounded=1;whiteSpace=wrap;html=1;arcSize=46;" vertex="1" parent="1">
          <mxGeometry x="306" y="100" width="134.5" height="60" as="geometry" />
        </mxCell>
        <mxCell id="1OSAMoRk1V6HN1oISEU6-28" value="return alist" style="rounded=1;whiteSpace=wrap;html=1;arcSize=46;" vertex="1" parent="1">
          <mxGeometry x="470" y="290" width="120" height="60" as="geometry" />
        </mxCell>
      </root>
    </mxGraphModel>
  </diagram>
</mxfile>
